<?xml version="1.0" standalone="no"?>
<!DOCTYPE svg PUBLIC "-//W3C//DTD SVG 1.1//EN" "http://www.w3.org/Graphics/SVG/1.1/DTD/svg11.dtd" >
<svg>
<metadata>
Created by FontForge 20090914 at Tue Jul 11 16:39:06 2017
 By www-data
OneSlot &#194;&#169; Starving-4 Entertainment. 2002. This font is licensed under the terms of the Design Science Licence: http://dsl.org/copyleft/dsl.txt
</metadata>
<defs>
<font id="OneSlot" horiz-adv-x="900" >
  <font-face 
    font-family="OneSlot"
    font-weight="400"
    font-stretch="normal"
    units-per-em="2048"
    panose-1="2 0 0 9 0 0 0 0 0 0"
    ascent="1638"
    descent="-410"
    x-height="1080"
    cap-height="1440"
    bbox="-90 -400.002 810 1800"
    underline-thickness="48"
    underline-position="-140"
    unicode-range="U+0020-U+F002"
  />
<missing-glyph 
d="M720 945l-108.001 -98.001c-12.667 35.333 -29.167 53 -49.5 53s-36.666 -17.667 -48.999 -53s-18.5 -77.666 -18.5 -126.999v-720c11.333 -223.333 -92 -325 -310 -305l20 186c73.333 -0.666992 110 39 110 119v120c-30 -80 -72.5 -120 -127.5 -120s-100 27.5 -135 82.5
s-52.5 147.5 -52.5 277.5v360c0 130 17.5 222.5 52.5 277.5s80 82.5 135 82.5s97.5 -40 127.5 -120v480h180v-480c30 80 67.5 120 112.5 120s82.5 -45 112.5 -135zM314.999 719.999c0 49.333 -4.5 91.666 -13.5 126.999s-25.333 53 -49 53s-41.667 -17.667 -54 -53
s-18.5 -77.666 -18.5 -126.999v-360c0 -49.333 6.16699 -91.666 18.5 -126.999s30.333 -53 54 -53s40 17.667 49 53s13.5 77.666 13.5 126.999v360zM347.999 1193c16 -15.333 35 -23 57 -23s41 7.66699 57 23c15.333 16 23 35 23 57s-7.66699 41 -23 57
c-16 15.333 -35 23 -57 23s-41 -7.66699 -57 -23c-15.333 -16 -23 -35 -23 -57s7.66699 -41 23 -57z" />
    <glyph glyph-name=".notdef" 
d="M720 945l-108.001 -98.001c-12.667 35.333 -29.167 53 -49.5 53s-36.666 -17.667 -48.999 -53s-18.5 -77.666 -18.5 -126.999v-720c11.333 -223.333 -92 -325 -310 -305l20 186c73.333 -0.666992 110 39 110 119v120c-30 -80 -72.5 -120 -127.5 -120s-100 27.5 -135 82.5
s-52.5 147.5 -52.5 277.5v360c0 130 17.5 222.5 52.5 277.5s80 82.5 135 82.5s97.5 -40 127.5 -120v480h180v-480c30 80 67.5 120 112.5 120s82.5 -45 112.5 -135zM314.999 719.999c0 49.333 -4.5 91.666 -13.5 126.999s-25.333 53 -49 53s-41.667 -17.667 -54 -53
s-18.5 -77.666 -18.5 -126.999v-360c0 -49.333 6.16699 -91.666 18.5 -126.999s30.333 -53 54 -53s40 17.667 49 53s13.5 77.666 13.5 126.999v360zM347.999 1193c16 -15.333 35 -23 57 -23s41 7.66699 57 23c15.333 16 23 35 23 57s-7.66699 41 -23 57
c-16 15.333 -35 23 -57 23s-41 -7.66699 -57 -23c-15.333 -16 -23 -35 -23 -57s7.66699 -41 23 -57z" />
    <glyph glyph-name="space" unicode=" " 
 />
    <glyph glyph-name="exclam" unicode="!" 
d="M450 1440v-1080h-180v1080h180zM480 90c0 -32.667 -11.832 -60.835 -35.499 -84.502s-51.834 -35.5 -84.501 -35.5s-60.834 11.833 -84.501 35.5s-35.5 51.834 -35.5 84.501s11.833 60.834 35.5 84.501s51.834 35.5 84.501 35.5s61 -11.667 85 -35
c23.333 -24 35 -52.333 35 -85z" />
    <glyph glyph-name="quotedbl" unicode="&#x22;" 
d="M450 1080l-45 360h180l-45 -360h-90zM180 1080l-45 360h180l-45 -360h-90z" />
    <glyph glyph-name="numbersign" unicode="#" 
d="M135 810v90h-90v180h90v90h-90v180h90v90h180v-90h90v90h180v-90h90v-180h-90v-90h90v-180h-90v-90h-180v90h-90v-90h-180zM315 1080h90v90h-90v-90z" />
    <glyph glyph-name="dollar" unicode="$" 
d="M487 398c35.333 25.333 53.0029 57.833 53.0029 97.5s-16.833 72 -50.5 97s-76.834 37.5 -129.501 37.5c-98 0 -182.5 31 -253.5 93s-106.5 136 -106.5 222s25.5 158.333 76.5 217s115.5 91.334 193.5 98.001v180h180v-180c78 0 168 -42 270 -126l-133 -139
c-75.333 56.667 -144.333 85 -207 85s-111.667 -13.167 -147 -39.5s-53 -58 -53 -95s17.667 -68.833 53 -95.5s77.666 -40 126.999 -40c101.333 0 186.666 -31 255.999 -93s104 -136 104 -222s-25.5 -158.333 -76.5 -217s-115.5 -91.334 -193.5 -98.001v-180h-180v180
c-78 0 -168 42 -270 126l133 139c75.333 -56.667 144.333 -85 207 -85s111.667 12.667 147 38z" />
    <glyph glyph-name="percent" unicode="%" 
d="M432 207c17.333 -18 38.334 -27.001 63.001 -27.001s45.834 8.83301 63.501 26.5s26.5 38.834 26.5 63.501s-8.83301 45.834 -26.5 63.501s-38.834 26.5 -63.501 26.5s-45.834 -8.83301 -63.501 -26.5s-26.5 -38.834 -26.5 -63.501s9 -45.667 27 -63zM162.001 1107
c17.333 -18 38.334 -27.001 63.001 -27.001s45.834 8.83301 63.501 26.5s26.5 38.834 26.5 63.501s-8.83301 45.834 -26.5 63.501s-38.834 26.5 -63.501 26.5s-45.834 -8.83301 -63.501 -26.5s-26.5 -38.834 -26.5 -63.501s9 -45.667 27 -63zM-44.998 1170
c0 73.333 26.667 136.666 80 189.999s116.666 80 189.999 80s136.666 -26.667 189.999 -80s80 -116.666 80 -189.999s-26.667 -136.666 -80 -189.999s-116.666 -80 -189.999 -80s-136.666 26.667 -189.999 80s-80 116.666 -80 189.999zM225.002 269.998
c0 73.333 26.667 136.666 80 189.999s116.666 80 189.999 80s136.666 -26.667 189.999 -80s80 -116.666 80 -189.999s-26.667 -136.666 -80 -189.999s-116.666 -80 -189.999 -80s-136.666 26.667 -189.999 80s-80 116.666 -80 189.999zM80.002 413.998l-103 148l663 464
l103 -148z" />
    <glyph glyph-name="ampersand" unicode="&#x26;" 
d="M608 9l-75 92.998l-47 -38c-64 -51.333 -137.5 -72.666 -220.5 -63.999s-150.167 45 -201.5 109c-52 64 -73.5 137.333 -64.5 220s45.167 150 108.5 202l47 37l-57 70c-36 44.667 -50.833 96 -44.5 154s31.5 105 75.5 141c44.667 36.667 96.167 51.834 154.5 45.501
s105.5 -31.5 141.5 -75.5c36 -44.667 51 -96.167 45 -154.5s-31.667 -105.5 -77 -141.5l-70 -56l227 -280l93 75l76 -93l-93 -76l75 -93zM278.5 118.998c49.667 -5.33301 93.5 7.33301 131.5 38l47 38l-226 280l-47 -38c-38.667 -30.667 -60.5 -71 -65.5 -121s8 -94 39 -132
s71.333 -59.667 121 -65zM318 700.997c19.333 14.667 30.332 34.665 32.999 59.998s-3.83301 47.333 -19.5 66s-36 29.334 -61 32.001s-47 -3.66602 -66 -18.999s-29.667 -35.5 -32 -60.5s3.83398 -46.833 18.501 -65.5l57 -70z" />
    <glyph glyph-name="quotesingle" unicode="'" 
d="M233 1093c-35.333 35.333 -52.998 77.666 -52.998 126.999s17.667 91.666 53 126.999s77.666 53 126.999 53s91.666 -17.667 126.999 -53s53 -77.666 53 -126.999s-17.667 -91.666 -53 -126.999l-213 -203l-67 72l79 78z" />
    <glyph glyph-name="parenleft" unicode="(" 
d="M466.5 -73.5c-71 71 -106.5 155.498 -106.5 253.498v1080c0 98 35.5 182.5 106.5 253.5s155.5 106.5 253.5 106.5v-180c-49.333 0 -91.666 -17.667 -126.999 -53s-53 -77.666 -53 -126.999v-1080c0 -49.333 17.667 -91.666 53 -126.999s77.666 -53 126.999 -53v-180
c-98 0 -182.5 35.5 -253.5 106.5z" />
    <glyph glyph-name="parenright" unicode=")" 
d="M253.5 1513.5c71 -71 106.5 -155.498 106.5 -253.498v-1080c0 -98 -35.5 -182.5 -106.5 -253.5s-155.5 -106.5 -253.5 -106.5v180c49.333 0 91.666 17.667 126.999 53s53 77.666 53 126.999v1080c0 49.333 -17.667 91.666 -53 126.999s-77.666 53 -126.999 53v180
c98 0 182.5 -35.5 253.5 -106.5z" />
    <glyph glyph-name="asterisk" unicode="*" 
d="M333 1261.5c-23.333 7.66699 -40.665 22.666 -51.998 44.999s-13.166 45.166 -5.49902 68.499s22.667 40.666 45 51.999s45.166 13.333 68.499 6s40.666 -22.166 51.999 -44.499s13.166 -45.166 5.49902 -68.499s-22.5 -41 -44.5 -53
c-22.667 -11.333 -45.667 -13.166 -69 -5.49902zM163.001 1138.5c-23.333 7.66699 -40.665 22.667 -51.998 45s-13.166 45.166 -5.49902 68.499s22.667 40.666 45 51.999s45.166 13.166 68.499 5.49902s40.666 -22.667 51.999 -45s13.166 -45.166 5.49902 -68.499
s-22.5 -40.666 -44.5 -51.999c-22.667 -11.333 -45.667 -13.166 -69 -5.49902zM602.002 1172.5c-14.667 -19.667 -34.332 -31.5 -58.999 -35.5s-47 1.16699 -67 15.5s-31.833 34 -35.5 59s1.66602 47.333 15.999 67s33.833 31.5 58.5 35.5s47 -1.16699 67 -15.5
s32 -33.833 36 -58.5c4 -25.333 -1.33301 -47.833 -16 -67.5zM438.004 941.499c-23.333 7.66699 -40.8311 22.667 -52.498 45s-13.667 45.166 -6 68.499s22.667 40.666 45 51.999s45.166 13.166 68.499 5.49902s40.666 -22.667 51.999 -45s13.333 -45.166 6 -68.499
s-22.333 -40.666 -45 -51.999c-22 -11.333 -44.667 -13.166 -68 -5.49902zM170.006 1025c0 24.667 8.83203 45.835 26.499 63.502s38.834 26.5 63.501 26.5s45.834 -8.83301 63.501 -26.5s26.5 -38.834 26.5 -63.501s-8.83301 -45.834 -26.5 -63.501
s-38.834 -26.5 -63.501 -26.5s-45.667 9 -63 27c-18 17.333 -27 38.333 -27 63z" />
    <glyph glyph-name="plus" unicode="+" 
d="M270 360v270h-270v180h270v270h180v-270h270v-180h-270v-270h-180z" />
    <glyph glyph-name="comma" unicode="," 
d="M233 53c-35.333 35.333 -52.998 77.666 -52.998 126.999s17.667 91.666 53 126.999s77.666 53 126.999 53s91.666 -17.667 126.999 -53s53 -77.666 53 -126.999s-17.667 -91.666 -53 -126.999l-213 -203l-67 72l79 78z" />
    <glyph glyph-name="hyphen" unicode="-" 
d="M0 630v180h720v-180h-720z" />
    <glyph glyph-name="hyphen" unicode="&#x2010;" 
d="M0 630v180h720v-180h-720z" />
    <glyph glyph-name="period" unicode="." 
d="M180 180c0 49.333 17.667 91.666 53 126.999s77.666 53 126.999 53s91.666 -17.667 126.999 -53s53 -77.666 53 -126.999s-17.667 -91.666 -53 -126.999s-77.666 -53 -126.999 -53s-91.666 17.667 -126.999 53s-53 77.666 -53 126.999z" />
    <glyph glyph-name="slash" unicode="/" 
d="M0 0l540 1440h180l-540 -1440h-180z" />
    <glyph glyph-name="zero" unicode="0" 
d="M106.5 106.5c-71 71 -106.5 155.5 -106.5 253.5v630c0 98 35.5 182.5 106.5 253.5s155.5 106.5 253.5 106.5s182.5 -35.5 253.5 -106.5s106.5 -155.5 106.5 -253.5v-630c0 -98 -35.5 -182.5 -106.5 -253.5s-155.5 -106.5 -253.5 -106.5s-182.5 35.5 -253.5 106.5z
M540 990c0 49.333 -17.667 91.666 -53 126.999s-77.666 53 -126.999 53s-91.666 -17.667 -126.999 -53s-53 -77.666 -53 -126.999v-630c0 -49.333 17.667 -91.666 53 -126.999s77.666 -53 126.999 -53s91.666 17.667 126.999 53s53 77.666 53 126.999v630z" />
    <glyph glyph-name="one" unicode="1" 
d="M350 0v1105l-170 -180v245l170 180h190v-1350h-190z" />
    <glyph glyph-name="two" unicode="2" 
d="M225 180h494.998v-180h-720v180c146.667 151.333 273.334 293.333 380.001 426s160 260.667 160 384c0 49.333 -17.667 91.666 -53 126.999s-77.666 53 -126.999 53s-91.666 -17.667 -126.999 -53s-53 -77.666 -53 -126.999h-180c0 98 35.5 182.5 106.5 253.5
s155.5 106.5 253.5 106.5s182.5 -35.5 253.5 -106.5s106.5 -155.5 106.5 -253.5c0 -136.667 -50.833 -277.667 -152.5 -423s-215.834 -274.333 -342.501 -387z" />
    <glyph glyph-name="three" unicode="3" 
d="M613.5 1243.5c71 -71 106.5 -155.5 106.5 -253.5v-45c0 -73.333 -26.667 -136.666 -80 -189.999s-116.666 -80 -189.999 -80c73.333 0 136.666 -26.667 189.999 -80s80 -116.666 80 -189.999v-45c0 -98 -35.5 -182.5 -106.5 -253.5s-155.5 -106.5 -253.5 -106.5
s-182.5 35.5 -253.5 106.5s-106.5 155.5 -106.5 253.5h180c0 -49.333 17.667 -91.666 53 -126.999s77.666 -53 126.999 -53s91.666 17.667 126.999 53s53 77.666 53 126.999v45c0 49.333 -17.667 91.666 -53 126.999s-77.666 53 -126.999 53h-90v180h90
c49.333 0 91.666 17.667 126.999 53s53 77.666 53 126.999v45c0 49.333 -17.667 91.666 -53 126.999s-77.666 53 -126.999 53s-91.666 -17.667 -126.999 -53s-53 -77.666 -53 -126.999h-180c0 98 35.5 182.5 106.5 253.5s155.5 106.5 253.5 106.5s182.5 -35.5 253.5 -106.5z
" />
    <glyph glyph-name="four" unicode="4" 
d="M450 0v270h-450v180l495 900h180l-450 -900h225v180h180v-180h90v-180h-90v-270h-180z" />
    <glyph glyph-name="five" unicode="5" 
d="M360 900c98 0 182.5 -35.5 253.5 -106.5s106.5 -155.5 106.5 -253.5v-180c0 -98 -35.5 -182.5 -106.5 -253.5s-155.5 -106.5 -253.5 -106.5s-182.5 35.5 -253.5 106.5s-106.5 155.5 -106.5 253.5h180c0 -49.333 17.667 -91.666 53 -126.999s77.666 -53 126.999 -53
s91.666 17.667 126.999 53s53 77.666 53 126.999v180c0 49.333 -17.667 91.666 -53 126.999s-77.666 53 -126.999 53s-91.666 -17.667 -126.999 -53s-53 -77.666 -53 -126.999l-180 90v720h720v-180h-540v-345c58 46.667 118 71.667 180 75z" />
    <glyph glyph-name="six" unicode="6" 
d="M630 793.5c60 -71 89.998 -155.499 89.998 -253.499v-180c0 -98 -35.5 -182.5 -106.5 -253.5s-155.5 -106.5 -253.5 -106.5s-182.5 35.5 -253.5 106.5s-106.5 155.5 -106.5 253.5v630c0 98 35.5 182.5 106.5 253.5s155.5 106.5 253.5 106.5s182.5 -35.5 253.5 -106.5
s106.5 -155.5 106.5 -253.5h-180c0 49.333 -17.667 91.666 -53 126.999s-77.666 53 -126.999 53s-91.666 -17.667 -126.999 -53s-53 -77.666 -53 -126.999v-270c0 49.333 17.667 91.666 53 126.999s95.333 53 180 53s157 -35.5 217 -106.5zM539.998 540.001
c0 49.333 -17.667 91.666 -53 126.999s-77.666 53 -126.999 53s-91.666 -17.667 -126.999 -53s-53 -77.666 -53 -126.999v-180c0 -49.333 17.667 -91.666 53 -126.999s77.666 -53 126.999 -53s91.666 17.667 126.999 53s53 77.666 53 126.999v180z" />
    <glyph glyph-name="seven" unicode="7" 
d="M135 0l405 1170h-540v180h720v-180l-405 -1170h-180z" />
    <glyph glyph-name="eight" unicode="8" 
d="M640 640c53.333 -53.333 80 -116.666 80 -189.999v-90c0 -98 -35.5 -182.5 -106.5 -253.5s-155.5 -106.5 -253.5 -106.5s-182.5 35.5 -253.5 106.5s-106.5 155.5 -106.5 253.5v90c0 73.333 26.667 136.666 80 189.999s116.666 80 189.999 80
c-73.333 0 -136.666 26.667 -189.999 80s-80 116.666 -80 189.999c0 98 35.5 182.5 106.5 253.5s155.5 106.5 253.5 106.5s182.5 -35.5 253.5 -106.5s106.5 -155.5 106.5 -253.5c0 -73.333 -26.667 -136.666 -80 -189.999s-116.666 -80 -189.999 -80
c73.333 0 136.666 -26.667 189.999 -80zM540 990c0 49.333 -17.667 91.666 -53 126.999s-77.666 53 -126.999 53s-91.666 -17.667 -126.999 -53s-53 -77.666 -53 -126.999s17.667 -91.666 53 -126.999s77.666 -53 126.999 -53s91.666 17.667 126.999 53
s53 77.666 53 126.999v0zM540 450c0 49.333 -17.667 91.666 -53 126.999s-77.666 53 -126.999 53s-91.666 -17.667 -126.999 -53s-53 -77.666 -53 -126.999v-90c0 -49.333 17.667 -91.666 53 -126.999s77.666 -53 126.999 -53s91.666 17.667 126.999 53
s53 77.666 53 126.999v90z" />
    <glyph glyph-name="nine" unicode="9" 
d="M90 556.5c-60 71 -89.998 155.499 -89.998 253.499v180c0 98 35.5 182.5 106.5 253.5s155.5 106.5 253.5 106.5s182.5 -35.5 253.5 -106.5s106.5 -155.5 106.5 -253.5v-630c0 -98 -35.5 -182.5 -106.5 -253.5s-155.5 -106.5 -253.5 -106.5s-182.5 35.5 -253.5 106.5
s-106.5 155.5 -106.5 253.5h180c0 -49.333 17.667 -91.666 53 -126.999s77.666 -53 126.999 -53s91.666 17.667 126.999 53s53 77.666 53 126.999v270c0 -49.333 -17.667 -91.666 -53 -126.999s-95.333 -53 -180 -53s-157 35.5 -217 106.5zM180.002 809.999
c0 -49.333 17.667 -91.666 53 -126.999s77.666 -53 126.999 -53s91.666 17.667 126.999 53s53 77.666 53 126.999v180c0 49.333 -17.667 91.666 -53 126.999s-77.666 53 -126.999 53s-91.666 -17.667 -126.999 -53s-53 -77.666 -53 -126.999v-180z" />
    <glyph glyph-name="colon" unicode=":" 
d="M180 900c0 49.333 17.667 91.666 53 126.999s77.666 53 126.999 53s91.666 -17.667 126.999 -53s53 -77.666 53 -126.999s-17.667 -91.666 -53 -126.999s-77.666 -53 -126.999 -53s-91.666 17.667 -126.999 53s-53 77.666 -53 126.999zM180 180
c0 49.333 17.667 91.666 53 126.999s77.666 53 126.999 53s91.666 -17.667 126.999 -53s53 -77.666 53 -126.999s-17.667 -91.666 -53 -126.999s-77.666 -53 -126.999 -53s-91.666 17.667 -126.999 53s-53 77.666 -53 126.999z" />
    <glyph glyph-name="semicolon" unicode=";" 
d="M233 53c-35.333 35.333 -52.998 77.666 -52.998 126.999s17.667 91.666 53 126.999s77.666 53 126.999 53s91.666 -17.667 126.999 -53s53 -77.666 53 -126.999s-17.667 -91.666 -53 -126.999l-213 -203l-67 72l79 78zM180.002 900c0 49.333 17.667 91.666 53 126.999
s77.666 53 126.999 53s91.666 -17.667 126.999 -53s53 -77.666 53 -126.999s-17.667 -91.666 -53 -126.999s-77.666 -53 -126.999 -53s-91.666 17.667 -126.999 53s-53 77.666 -53 126.999z" />
    <glyph glyph-name="less" unicode="&#x3c;" 
d="M0 810l720 270v-200l-500 -160l500 -160v-200l-720 270v180z" />
    <glyph glyph-name="equal" unicode="=" 
d="M0 450v180h720v-180h-720zM0 810v180h720v-180h-720z" />
    <glyph glyph-name="greater" unicode="&#x3e;" 
d="M720 630l-720 -270v200l500 160l-500 160v200l720 -270v-180z" />
    <glyph glyph-name="question" unicode="?" 
d="M376 673l110.998 115c35.333 35.333 53 77.666 53 126.999v165c0 49.333 -17.667 91.666 -53 126.999s-77.666 53 -126.999 53s-91.666 -17.667 -126.999 -53s-53 -77.666 -53 -126.999h-180c0 98 35.5 182.5 106.5 253.5s155.5 106.5 253.5 106.5
s182.5 -35.5 253.5 -106.5s106.5 -155.5 106.5 -253.5v-165c0 -98 -35.333 -182.333 -106 -253l-90 -94c-49.333 -49.333 -74 -98.666 -74 -147.999v-60h-180v60c0 98 35.333 182.333 106 253zM479.998 90c0 -32.667 -11.832 -60.835 -35.499 -84.502
s-51.834 -35.5 -84.501 -35.5s-60.834 11.833 -84.501 35.5s-35.5 51.834 -35.5 84.501s11.833 60.834 35.5 84.501s51.834 35.5 84.501 35.5s61 -11.667 85 -35c23.333 -24 35 -52.333 35 -85z" />
    <glyph glyph-name="at" unicode="@" 
d="M106.5 106.5c-71 71 -106.503 155.501 -106.503 253.501v720c0 98 35.5 182.5 106.5 253.5s155.5 106.5 253.5 106.5s182.5 -35.5 253.5 -106.5s106.5 -155.5 106.5 -253.5v-540h-180c-49.333 0 -91.666 17.667 -126.999 53s-53 77.666 -53 126.999
s17.667 91.666 53 126.999s78.333 53 129 53l-2 180c0 49.333 -17.667 91.666 -53 126.999s-77.666 53 -126.999 53s-91.666 -17.667 -126.999 -53s-53 -77.666 -53 -126.999v-720c0 -49.333 17.667 -91.666 53 -126.999s84.333 -53 147 -53s131.667 28.333 207 85l133 -139
c-102 -84 -212 -126 -330 -126s-212.5 35.5 -283.5 106.5z" />
    <glyph glyph-name="A" unicode="A" 
d="M450 1440l310 -1440h-200l-50 270h-300l-50 -270h-200l310 1440h180zM480 450l-120 770l-120 -770h240z" />
    <glyph glyph-name="B" unicode="B" 
d="M640 640c53.333 -53.333 80 -116.668 80 -190.001v-90c0 -98 -35.5 -182.5 -106.5 -253.5s-155.5 -106.5 -253.5 -106.5h-360v1440h360c98 0 182.5 -35.5 253.5 -106.5s106.5 -155.5 106.5 -253.5v-90c0 -73.333 -26.667 -136.666 -80 -189.999
s-116.666 -80 -189.999 -80c73.333 0 136.666 -26.667 189.999 -80zM540 1080c0 49.333 -17.667 91.668 -53 127.001s-77.666 53 -126.999 53h-180v-450h180c49.333 0 91.666 17.667 126.999 53s53 77.666 53 126.999v90v0zM540 450c0 49.333 -17.667 91.668 -53 127.001
s-77.666 53 -126.999 53h-180v-450h180c49.333 0 91.666 17.667 126.999 53s53 77.666 53 126.999v90z" />
    <glyph glyph-name="C" unicode="C" 
d="M106.5 106.5c-71 71 -106.5 155.5 -106.5 253.5v720c0 98 35.5 182.5 106.5 253.5s155.5 106.5 253.5 106.5s182.5 -35.5 253.5 -106.5s106.5 -155.5 106.5 -253.5h-180c0 49.333 -17.667 91.666 -53 126.999s-77.666 53 -126.999 53s-91.666 -17.667 -126.999 -53
s-53 -77.666 -53 -126.999v-720c0 -49.333 17.667 -91.666 53 -126.999s77.666 -53 126.999 -53s91.666 17.667 126.999 53s53 77.666 53 126.999h180c0 -98 -35.5 -182.5 -106.5 -253.5s-155.5 -106.5 -253.5 -106.5s-182.5 35.5 -253.5 106.5z" />
    <glyph glyph-name="D" unicode="D" 
d="M0 0v1440h360c98 0 182.5 -35.5 253.5 -106.5s106.5 -155.5 106.5 -253.5v-720c0 -98 -35.5 -182.5 -106.5 -253.5s-155.5 -106.5 -253.5 -106.5h-360zM540 1080c0 49.333 -17.667 91.668 -53 127.001s-77.666 53 -126.999 53h-180v-1080h180
c49.333 0 91.666 17.667 126.999 53s53 77.666 53 126.999v720z" />
    <glyph glyph-name="E" unicode="E" 
d="M0 0v1440h720v-180h-540v-450h360v-180h-360v-450h540v-180h-720z" />
    <glyph glyph-name="F" unicode="F" 
d="M0 0v1440h720v-180h-540v-450h360v-180h-360v-630h-180z" />
    <glyph glyph-name="G" unicode="G" 
d="M106.5 106.5c-71 71 -106.5 155.5 -106.5 253.5v720c0 98 35.5 182.5 106.5 253.5s155.5 106.5 253.5 106.5s182.5 -35.5 253.5 -106.5s106.5 -155.5 106.5 -253.5h-180c0 49.333 -17.667 91.666 -53 126.999s-77.666 53 -126.999 53s-91.666 -17.667 -126.999 -53
s-53 -77.666 -53 -126.999v-720c0 -49.333 17.667 -91.666 53 -126.999s77.666 -53 126.999 -53s91.666 17.667 126.999 53s53 77.666 53 126.999v270h-180v180h360v-450c0 -98 -35.5 -182.5 -106.5 -253.5s-155.5 -106.5 -253.5 -106.5s-182.5 35.5 -253.5 106.5z" />
    <glyph glyph-name="H" unicode="H" 
d="M0 0v1440h180v-630h360v630h180v-1440h-180v630h-360v-630h-180z" />
    <glyph glyph-name="I" unicode="I" 
d="M90 0v180h180v1080h-180v180h540v-180h-180v-1080h180v-180h-540z" />
    <glyph glyph-name="J" unicode="J" 
d="M106.5 106.5c-71 71 -106.498 155.5 -106.498 253.5h180c0 -49.333 17.667 -91.666 53 -126.999s77.666 -53 126.999 -53s91.666 17.667 126.999 53s53 77.666 53 126.999v1080h180v-1080c0 -98 -35.5 -182.5 -106.5 -253.5s-155.5 -106.5 -253.5 -106.5
s-182.5 35.5 -253.5 106.5z" />
    <glyph glyph-name="K" unicode="K" 
d="M0 0v1440h180v-720l340 720h200l-320 -660l320 -780h-200l-245 605l-95 -185v-420h-180z" />
    <glyph glyph-name="L" unicode="L" 
d="M0 0v1440h180v-1260h540v-180h-720z" />
    <glyph glyph-name="M" unicode="M" 
d="M-40 0v1440h210l190 -720l190 720h210v-1440h-180v870l-220 -705l-220 705v-870h-180z" />
    <glyph glyph-name="N" unicode="N" 
d="M0 0v1440h180l360 -990v990h180v-1440h-180l-360 990v-990h-180z" />
    <glyph glyph-name="O" unicode="O" 
d="M106.5 106.5c-71 71 -106.5 155.5 -106.5 253.5v720c0 98 35.5 182.5 106.5 253.5s155.5 106.5 253.5 106.5s182.5 -35.5 253.5 -106.5s106.5 -155.5 106.5 -253.5v-720c0 -98 -35.5 -182.5 -106.5 -253.5s-155.5 -106.5 -253.5 -106.5s-182.5 35.5 -253.5 106.5z
M540 1080c0 49.333 -17.667 91.666 -53 126.999s-77.666 53 -126.999 53s-91.666 -17.667 -126.999 -53s-53 -77.666 -53 -126.999v-720c0 -49.333 17.667 -91.666 53 -126.999s77.666 -53 126.999 -53s91.666 17.667 126.999 53s53 77.666 53 126.999v720z" />
    <glyph glyph-name="P" unicode="P" 
d="M360 1440c98 0 182.5 -35.5 253.5 -106.5s106.5 -155.5 106.5 -253.5v-180c0 -98 -35.5 -182.5 -106.5 -253.5s-155.5 -106.5 -253.5 -106.5h-180v-540h-180v1440h360zM540 1080c0 49.333 -17.667 91.668 -53 127.001s-77.666 53 -126.999 53h-180v-540h180
c49.333 0 91.666 17.667 126.999 53s53 77.666 53 126.999v180z" />
    <glyph glyph-name="Q" unicode="Q" 
d="M540 1080c0 49.333 -17.6689 91.666 -53.002 126.999s-77.666 53 -126.999 53s-91.666 -17.667 -126.999 -53s-53 -77.666 -53 -126.999v-774l143 104l137 -200c53.333 30.667 80 80.667 80 150v720zM101.498 116.5c-67.667 77.667 -101.5 158.832 -101.5 243.499v720
c0 98 35.5 182.5 106.5 253.5s155.5 106.5 253.5 106.5s182.5 -35.5 253.5 -106.5s106.5 -155.5 106.5 -253.5v-720c0 -111.333 -52 -207.666 -156 -288.999l120 -177l-147 -104l-140 210c-129.333 -0 -227.833 38.833 -295.5 116.5z" />
    <glyph glyph-name="R" unicode="R" 
d="M360 1440c98 0 182.5 -35.5 253.5 -106.5s106.5 -155.5 106.5 -253.5v-90c0 -98 -28.833 -180 -86.5 -246s-117.167 -100.667 -178.5 -104l295 -640h-210l-260 630h-100v-630h-180v1440h360zM540 1080c0 49.333 -17.667 91.668 -53 127.001s-77.666 53 -126.999 53h-180
v-450h180c49.333 0 91.666 17.667 126.999 53s53 77.666 53 126.999v90z" />
    <glyph glyph-name="S" unicode="S" 
d="M487 233c35.333 35.333 53 77.665 53 126.998v95c0 49.333 -17.667 90.833 -53 124.5s-77.666 50.5 -126.999 50.5c-98 0 -182.5 35.5 -253.5 106.5s-106.5 155.5 -106.5 253.5v90c0 98 35.5 182.5 106.5 253.5s155.5 106.5 253.5 106.5s182.5 -35.5 253.5 -106.5
s106.5 -155.5 106.5 -253.5h-180c0 49.333 -17.667 91.666 -53 126.999s-77.666 53 -126.999 53s-91.666 -17.667 -126.999 -53s-53 -77.666 -53 -126.999v-90c0 -49.333 17.667 -91.666 53 -126.999s77.666 -53 126.999 -53c98 0 182.5 -35.5 253.5 -106.5
s106.5 -155.5 106.5 -253.5v-90c0 -98 -35.5 -182.5 -106.5 -253.5s-155.5 -106.5 -253.5 -106.5s-182.5 35.5 -253.5 106.5s-106.5 155.5 -106.5 253.5h180c0 -49.333 17.667 -91.666 53 -126.999s77.666 -53 126.999 -53s91.666 17.667 126.999 53z" />
    <glyph glyph-name="T" unicode="T" 
d="M270 0v1260h-270v180h720v-180h-270v-1260h-180z" />
    <glyph glyph-name="U" unicode="U" 
d="M106.5 106.5c-71 71 -106.498 155.5 -106.498 253.5v1080h180v-1080c0 -49.333 17.667 -91.666 53 -126.999s77.666 -53 126.999 -53s91.666 17.667 126.999 53s53 77.666 53 126.999v1080h180v-1080c0 -98 -35.5 -182.5 -106.5 -253.5s-155.5 -106.5 -253.5 -106.5
s-182.5 35.5 -253.5 106.5z" />
    <glyph glyph-name="V" unicode="V" 
d="M270 0l-270 1440h200l160 -1220l160 1220h200l-270 -1440h-180z" />
    <glyph glyph-name="W" unicode="W" 
d="M90 0l-150 1440h190l90 -1005l140 740l140 -740l90 1005h190l-150 -1440h-180l-90 540l-90 -540h-180z" />
    <glyph glyph-name="X" unicode="X" 
d="M0 0l240 720l-240 720h210l150 -630l150 630h210l-240 -720l240 -720h-210l-150 630l-150 -630h-210z" />
    <glyph glyph-name="Y" unicode="Y" 
d="M270 360l-270 1080h200l160 -860l160 860h200l-270 -1080v-360h-180v360z" />
    <glyph glyph-name="Z" unicode="Z" 
d="M0 0v180l520 1080h-520v180h720v-180l-520 -1080h520v-180h-720z" />
    <glyph glyph-name="bracketleft" unicode="[" 
d="M360 -180v1800h360v-180h-180v-1440h180v-180h-360z" />
    <glyph glyph-name="backslash" unicode="\" 
d="M540 0l-540 1440h180l540 -1440h-180z" />
    <glyph glyph-name="bracketright" unicode="]" 
d="M360 1620v-1800h-360v180h180v1440h-180v180h360z" />
    <glyph glyph-name="asciicircum" unicode="^" 
d="M450 1440l270 -630h-200l-160 495l-160 -495h-200l270 630h180z" />
    <glyph glyph-name="underscore" unicode="_" 
d="M-90 -180v90h900v-90h-900z" />
    <glyph glyph-name="grave" unicode="`" 
d="M270 1208v179.999h180v-180c0 -25.333 8.66699 -46.666 26 -63.999l127 -127l-127 -128l-127 128c-52.667 52 -79 115.667 -79 191z" />
    <glyph glyph-name="a" unicode="a" 
d="M90 106.5c-60 71 -90.001 155.499 -90.001 253.499s30 182.5 90 253.5s132.333 106.5 217 106.5s144.667 -17.667 180 -53s53 -77.666 53 -126.999v180c0 49.333 -17.667 91.666 -53 126.999s-77.666 53 -126.999 53c-60 0 -125 -21.667 -195 -65l-95 150
c93.333 63.333 190 95 290 95c98 0 182.5 -35.5 253.5 -106.5s106.5 -155.5 106.5 -253.5v-720h-180v180c0 -49.333 -17.667 -91.666 -53 -126.999s-95.333 -53 -180 -53s-157 35.5 -217 106.5zM359.999 179.999c49.333 0 91.666 17.667 126.999 53s53 77.666 53 126.999
s-17.667 91.666 -53 126.999s-77.666 53 -126.999 53s-91.666 -17.667 -126.999 -53s-53 -77.666 -53 -126.999s17.667 -91.666 53 -126.999s77.666 -53 126.999 -53z" />
    <glyph glyph-name="b" unicode="b" 
d="M487 847c-35.333 35.333 -77.666 53 -126.999 53s-91.666 -17.667 -126.999 -53s-53 -77.666 -53 -126.999v-360c0 -49.333 17.667 -91.666 53 -126.999s77.666 -53 126.999 -53s91.666 17.667 126.999 53s53 77.666 53 126.999v360c0 49.333 -17.667 91.666 -53 126.999
zM233 53c-35.333 35.333 -53 77.668 -53 127.001v-180h-180v1440h180v-540c0 49.333 17.667 91.666 53 126.999s95.333 53 180 53s157 -35.5 217 -106.5s90 -155.5 90 -253.5v-360c0 -98 -30 -182.5 -90 -253.5s-132.333 -106.5 -217 -106.5s-144.667 17.667 -180 53z" />
    <glyph glyph-name="c" unicode="c" 
d="M106.5 106.5c-71 71 -106.5 155.498 -106.5 253.498v360c0 98 35.5 182.5 106.5 253.5s165.5 106.5 283.5 106.5s228 -42 330 -126l-133 -139c-75.333 56.667 -144.333 85 -207 85s-111.667 -17.667 -147 -53s-53 -77.666 -53 -126.999v-360
c0 -49.333 17.667 -91.666 53 -126.999s84.333 -53 147 -53s131.667 28.333 207 85l133 -139c-102 -84 -212 -126 -330 -126s-212.5 35.5 -283.5 106.5z" />
    <glyph glyph-name="d" unicode="d" 
d="M180 720v-360c0 -49.333 17.667 -91.666 53 -126.999s77.666 -53 126.999 -53s91.666 17.667 126.999 53s53 77.666 53 126.999v360c0 49.333 -17.667 91.666 -53 126.999s-77.666 53 -126.999 53s-91.666 -17.667 -126.999 -53s-53 -77.666 -53 -126.999zM90 106.5
c-60 71 -90 155.498 -90 253.498v360c0 98 30 182.5 90 253.5s132.333 106.5 217 106.5s144.667 -17.667 180 -53s53 -77.666 53 -126.999v540h180v-1440h-180v180c0 -49.333 -17.667 -91.666 -53 -126.999s-95.333 -53 -180 -53s-157 35.5 -217 106.5z" />
    <glyph glyph-name="e" unicode="e" 
d="M106.5 106.5c-71 71 -106.498 155.499 -106.498 253.499v360c0 98 35.5 182.5 106.5 253.5s155.5 106.5 253.5 106.5s182.5 -35.5 253.5 -106.5s106.5 -155.5 106.5 -253.5v-270h-540v-90c0 -49.333 17.667 -91.666 53 -126.999s92.666 -53 171.999 -53
s136.666 18.333 171.999 55l143 -129c-82 -70.667 -187 -106 -315 -106s-227.5 35.5 -298.5 106.5zM487.002 846.999c-35.333 35.333 -77.668 53 -127.001 53s-91.666 -17.667 -126.999 -53s-53 -77.666 -53 -126.999v-90h360v90c0 49.333 -17.667 91.666 -53 126.999z" />
    <glyph glyph-name="f" unicode="f" 
d="M715 1379l-73 -159.001c-78.667 26.667 -137.667 40 -177 40s-73.333 -17.667 -102 -53s-43 -77.666 -43 -126.999h220v-180h-220v-900h-180v900h-140v180h140c0 98 28 182.5 84 253.5s129.667 106.5 221 106.5s181.333 -20.333 270 -61z" />
    <glyph glyph-name="g" unicode="g" 
d="M233 233c35.333 -35.333 77.666 -53 126.999 -53s91.666 17.667 126.999 53s53 77.666 53 126.999v360c0 49.333 -17.667 91.666 -53 126.999s-77.666 53 -126.999 53s-91.666 -17.667 -126.999 -53s-53 -77.666 -53 -126.999v-360c0 -49.333 17.667 -91.666 53 -126.999
zM487 1027c35.333 -35.333 52.999 -77.667 52.999 -127v180h180v-1080c0 -98 -35.5 -182.5 -106.5 -253.5s-165.5 -106.5 -283.5 -106.5s-228 42 -330 126l133 139c75.333 -56.667 144.333 -85 207 -85s111.334 17.667 146.001 53s52.667 77.666 54 126.999v180
c0 -49.333 -17.667 -91.666 -53 -126.999s-95.333 -53 -180 -53s-157 35.5 -217 106.5s-90 155.5 -90 253.5v360c0 98 30 182.5 90 253.5s132.333 106.5 217 106.5s144.667 -17.667 180 -53z" />
    <glyph glyph-name="h" unicode="h" 
d="M630 973.5c60 -71 89.998 -155.499 89.998 -253.499v-720h-180v720c0 49.333 -17.667 91.666 -53 126.999s-77.666 53 -126.999 53s-91.666 -17.667 -126.999 -53s-53 -77.666 -53 -126.999v-720h-180v1440h180v-540c0 49.333 17.667 91.666 53 126.999s95.333 53 180 53
s157 -35.5 217 -106.5z" />
    <glyph glyph-name="i" unicode="i" 
d="M90 0v180h180v720h-180v180h360v-900h180v-180h-540zM275 1265c-23.333 23.333 -35 51.666 -35 84.999s11.667 61.666 35 84.999s51.666 35 84.999 35s61.666 -11.667 84.999 -35s35 -51.666 35 -84.999s-11.667 -61.666 -35 -84.999s-51.666 -35 -84.999 -35
s-61.666 11.667 -84.999 35z" />
    <glyph glyph-name="j" unicode="j" 
d="M540 1080l180 0.000976562v-1080c0 -98 -35.5 -182.5 -106.5 -253.5s-165.5 -106.5 -283.5 -106.5s-228 42 -330 126l133 139c75.333 -56.667 144.333 -85 207 -85s111.667 17.667 147 53s53 77.666 53 126.999v1080zM545 1265c-23.333 23.333 -35 51.666 -35 84.999
s11.667 61.666 35 84.999s51.666 35 84.999 35s61.666 -11.667 84.999 -35s35 -51.666 35 -84.999s-11.667 -61.666 -35 -84.999s-51.666 -35 -84.999 -35s-61.666 11.667 -84.999 35z" />
    <glyph glyph-name="k" unicode="k" 
d="M0 0v1440h180v-900l340 540h200l-320 -495l320 -585h-200l-245 454l-95 -139v-315h-180z" />
    <glyph glyph-name="l" unicode="l" 
d="M90 0v180h180v1080h-180v180h360v-1260h180v-180h-540z" />
    <glyph glyph-name="m" unicode="m" 
d="M727.5 973.5c25 -71 37.499 -155.5 37.499 -253.5v-720h-180v720c0 49.333 -6.16699 91.666 -18.5 126.999s-28.666 53 -48.999 53s-36.666 -17.667 -48.999 -53s-18.5 -77.666 -18.5 -126.999v-720h-180v720c0 49.333 -4.5 91.666 -13.5 126.999s-25.333 53 -49 53
s-41.667 -17.667 -54 -53s-18.5 -77.666 -18.5 -126.999v-720h-180v1080h180v-180c7.33301 120 53.333 180 138 180s128.667 -60 132 -180c31.333 120 86.666 180 165.999 180s131.5 -35.5 156.5 -106.5z" />
    <glyph glyph-name="n" unicode="n" 
d="M630 973.5c60 -71 89.998 -155.499 89.998 -253.499v-720h-180v720c0 49.333 -17.667 91.666 -53 126.999s-77.666 53 -126.999 53s-91.666 -17.667 -126.999 -53s-53 -77.666 -53 -126.999v-720h-180v1080h180v-180c0 49.333 17.667 91.666 53 126.999s95.333 53 180 53
s157 -35.5 217 -106.5z" />
    <glyph glyph-name="o" unicode="o" 
d="M106.5 106.5c-71 71 -106.5 155.5 -106.5 253.5v360c0 98 35.5 182.5 106.5 253.5s155.5 106.5 253.5 106.5s182.5 -35.5 253.5 -106.5s106.5 -155.5 106.5 -253.5v-360c0 -98 -35.5 -182.5 -106.5 -253.5s-155.5 -106.5 -253.5 -106.5s-182.5 35.5 -253.5 106.5z
M540 720c0 49.333 -17.667 91.666 -53 126.999s-77.666 53 -126.999 53s-91.666 -17.667 -126.999 -53s-53 -77.666 -53 -126.999v-360c0 -49.333 17.667 -91.666 53 -126.999s77.666 -53 126.999 -53s91.666 17.667 126.999 53s53 77.666 53 126.999v360z" />
    <glyph glyph-name="p" unicode="p" 
d="M540 360v360c0 49.333 -17.667 91.666 -53 126.999s-77.666 53 -126.999 53s-91.666 -17.667 -126.999 -53s-53 -77.666 -53 -126.999v-360c0 -49.333 17.667 -91.666 53 -126.999s77.666 -53 126.999 -53s91.666 17.667 126.999 53s53 77.666 53 126.999zM630 973.5
c60 -71 90 -155.498 90 -253.498v-360c0 -98 -30 -182.5 -90 -253.5s-132.333 -106.5 -217 -106.5s-144.667 17.667 -180 53s-53 77.666 -53 126.999v-540h-180v1440h180v-180c0 49.333 17.667 91.666 53 126.999s95.333 53 180 53s157 -35.5 217 -106.5z" />
    <glyph glyph-name="q" unicode="q" 
d="M233 233c35.333 -35.333 77.666 -53 126.999 -53s91.666 17.667 126.999 53s53 77.666 53 126.999v360c0 49.333 -17.667 91.666 -53 126.999s-77.666 53 -126.999 53s-91.666 -17.667 -126.999 -53s-53 -77.666 -53 -126.999v-360c0 -49.333 17.667 -91.666 53 -126.999
zM487 1027c35.333 -35.333 53 -77.668 53 -127.001v180h180v-1260h90v-180h-270v540c0 -49.333 -17.667 -91.666 -53 -126.999s-95.333 -53 -180 -53s-157 35.5 -217 106.5s-90 155.5 -90 253.5v360c0 98 30 182.5 90 253.5s132.333 106.5 217 106.5
s144.667 -17.667 180 -53z" />
    <glyph glyph-name="r" unicode="r" 
d="M720 954l-133 -139c-75.333 56.667 -136.833 85 -184.5 85s-89.167 -17.667 -124.5 -53s-53 -77.666 -53 -126.999v-720h-180v1080h180v-180c0 49.333 17.667 91.666 53 126.999s92.333 53 171 53s169 -42 271 -126z" />
    <glyph glyph-name="s" unicode="s" 
d="M487 218c35.333 25.333 53.0029 57.833 53.0029 97.5s-16.833 72 -50.5 97s-76.834 37.5 -129.501 37.5c-98 0 -182.5 31 -253.5 93s-106.5 136 -106.5 222s35.5 160 106.5 222s165.5 93 283.5 93s228 -42 330 -126l-133 -139c-75.333 56.667 -144.333 85 -207 85
s-111.667 -13.167 -147 -39.5s-53 -58 -53 -95s17.667 -68.833 53 -95.5s77.666 -40 126.999 -40c101.333 0 186.666 -31 255.999 -93s104 -136 104 -222s-35.5 -160 -106.5 -222s-165.5 -93 -283.5 -93s-228 42 -330 126l133 139c75.333 -56.667 144.333 -85 207 -85
s111.667 12.667 147 38z" />
    <glyph glyph-name="t" unicode="t" 
d="M224 106.5c-56 71 -84 155.499 -84 253.499v540h-140v180h140v360h180v-360h220v-180h-220v-540c0 -49.333 14.333 -91.666 43 -126.999s62.667 -53 102 -53s98.333 13.333 177 40l73 -159c-88.667 -40.667 -178.667 -61 -270 -61s-165 35.5 -221 106.5z" />
    <glyph glyph-name="u" unicode="u" 
d="M90 106.5c-60 71 -89.998 155.499 -89.998 253.499v720h180v-720c0 -49.333 17.667 -91.666 53 -126.999s77.666 -53 126.999 -53s91.666 17.667 126.999 53s53 77.666 53 126.999v720h180v-1080h-180v180c0 -49.333 -17.667 -91.666 -53 -126.999s-95.333 -53 -180 -53
s-157 35.5 -217 106.5z" />
    <glyph glyph-name="v" unicode="v" 
d="M270 0l-270 1080h200l160 -860l160 860h200l-270 -1080h-180z" />
    <glyph glyph-name="w" unicode="w" 
d="M90 0l-150 1080h190l70 -660l160 660l160 -660l70 660h190l-150 -1080h-180l-90 540l-90 -540h-180z" />
    <glyph glyph-name="x" unicode="x" 
d="M0 0l240 540l-240 540h210l150 -472l150 472h210l-240 -540l240 -540h-210l-150 472l-150 -472h-210z" />
    <glyph glyph-name="y" unicode="y" 
d="M270 0l-270 1080h200l160 -860l160 860h200l-300 -1200c-40 -160 -120 -240 -240 -240c-90 0 -150 15 -180 45v165c30 -20 70 -30 120 -30c70 0 120 60 150 180z" />
    <glyph glyph-name="z" unicode="z" 
d="M0 0v180l495 720h-495v180h720v-180l-495 -720h495v-180h-720z" />
    <glyph glyph-name="braceleft" unicode="{" 
d="M466.5 -73.5c-71 71 -106.5 155.498 -106.5 253.498v270c0 49.333 -17.667 91.666 -53 126.999s-77.666 53 -126.999 53v180c49.333 0 91.666 17.667 126.999 53s53 77.666 53 126.999v270c0 98 35.5 182.5 106.5 253.5s155.5 106.5 253.5 106.5v-180
c-49.333 0 -91.666 -17.667 -126.999 -53s-53 -77.666 -53 -126.999v-270c0 -73.333 -26.667 -136.666 -80 -189.999s-116.666 -80 -189.999 -80c73.333 0 136.666 -26.667 189.999 -80s80 -116.666 80 -189.999v-270c0 -49.333 17.667 -91.666 53 -126.999
s77.666 -53 126.999 -53v-180c-98 0 -182.5 35.5 -253.5 106.5z" />
    <glyph glyph-name="bar" unicode="|" 
d="M315 -180v1800h90v-1800h-90z" />
    <glyph glyph-name="braceright" unicode="}" 
d="M253.5 1513.5c71 -71 106.5 -155.498 106.5 -253.498v-270c0 -49.333 17.667 -91.666 53 -126.999s77.666 -53 126.999 -53v-180c-49.333 0 -91.666 -17.667 -126.999 -53s-53 -77.666 -53 -126.999v-270c0 -98 -35.5 -182.5 -106.5 -253.5s-155.5 -106.5 -253.5 -106.5
v180c49.333 0 91.666 17.667 126.999 53s53 77.666 53 126.999v270c0 73.333 26.667 136.666 80 189.999s116.666 80 189.999 80c-73.333 0 -136.666 26.667 -189.999 80s-80 116.666 -80 189.999v270c0 49.333 -17.667 91.666 -53 126.999s-77.666 53 -126.999 53v180
c98 0 182.5 -35.5 253.5 -106.5z" />
    <glyph glyph-name="asciitilde" unicode="~" 
d="M240 855c65.333 0 113.5 -22.5 144.5 -67.5s62.833 -67.5 95.5 -67.5s60.834 13.167 84.501 39.5s35.5 58.166 35.5 95.499h120c0 -73.333 -23.667 -136.666 -71 -189.999s-103.666 -80 -168.999 -80s-113.5 22.5 -144.5 67.5s-62.833 67.5 -95.5 67.5
s-60.834 -13.167 -84.501 -39.5s-35.5 -58.166 -35.5 -95.499h-120c0 73.333 23.667 136.666 71 189.999s103.666 80 168.999 80z" />
    <glyph glyph-name="nonbreakingspace" unicode="&#xa0;" 
 />
    <glyph glyph-name="exclamdown" unicode="&#xa1;" 
d="M270 -360v1080h180v-1080h-180zM240 990c0 32.667 11.832 60.835 35.499 84.502s51.834 35.5 84.501 35.5s60.834 -11.833 84.501 -35.5s35.5 -51.834 35.5 -84.501s-11.833 -60.834 -35.5 -84.501s-51.834 -35.5 -84.501 -35.5s-61 11.667 -85 35
c-23.333 24 -35 52.333 -35 85z" />
    <glyph glyph-name="cent" unicode="&#xa2;" 
d="M76.5 646.5c-51 71 -76.5 155.498 -76.5 253.498v180c0 98 25.5 182.5 76.5 253.5s115.5 106.5 193.5 106.5v180h180v-180c78 0 168 -42 270 -126l-133 -139c-75.333 56.667 -144.333 85 -207 85s-111.667 -17.667 -147 -53s-53 -77.666 -53 -126.999v-180
c0 -49.333 17.667 -91.666 53 -126.999s84.333 -53 147 -53s131.667 28.333 207 85l133 -139c-102 -84 -192 -126 -270 -126v-180h-180v180c-78 0 -142.5 35.5 -193.5 106.5z" />
    <glyph glyph-name="sterling" unicode="&#xa3;" 
d="M0 0l-0.00195312 179.999h90v450h-90v180h90v270c0 98 35.5 182.5 106.5 253.5s155.5 106.5 253.5 106.5s188 -20.667 270 -62l-83 -156c-75.333 25.333 -137.666 38 -186.999 38s-91.666 -17.667 -126.999 -53s-53 -77.666 -53 -126.999v-270h270v-180h-270v-450h450
v-180h-720z" />
    <glyph glyph-name="currency" unicode="&#xa4;" 
d="M106.5 106.5c-71 71 -106.5 155.5 -106.5 253.5v720c0 98 35.5 182.5 106.5 253.5s155.5 106.5 253.5 106.5s182.5 -35.5 253.5 -106.5s106.5 -155.5 106.5 -253.5h-180c0 49.333 -17.667 91.666 -53 126.999s-77.666 53 -126.999 53s-91.666 -17.667 -126.999 -53
s-53 -77.666 -53 -126.999v-125h315l-45 -180h-270v-100h240l-45 -180h-195v-135c0 -49.333 17.667 -91.666 53 -126.999s77.666 -53 126.999 -53s91.666 17.667 126.999 53s53 77.666 53 126.999h180c0 -98 -35.5 -182.5 -106.5 -253.5s-155.5 -106.5 -253.5 -106.5
s-182.5 35.5 -253.5 106.5z" />
    <glyph glyph-name="yen" unicode="&#xa5;" 
d="M270 360l-270 1080h200l160 -860l160 860h200l-270 -1080h135v-180h-135v-180h-180v180h-135v180h135z" />
    <glyph glyph-name="brokenbar" unicode="&#xa6;" 
d="M315 810v810h90v-810h-90zM315 -180v810h90v-810h-90z" />
    <glyph glyph-name="section" unicode="&#xa7;" 
d="M180 720c0 -49.333 17.667 -91.666 53 -126.999s77.666 -53 126.999 -53s91.666 17.667 126.999 53s53 77.666 53 126.999s-17.667 91.666 -53 126.999s-77.666 53 -126.999 53s-91.666 -17.667 -126.999 -53s-53 -77.666 -53 -126.999v0v0zM360 360
c-98 0 -182.5 35.5 -253.5 106.5s-106.5 155.5 -106.5 253.5s26.667 173 80 225c-53.333 52 -80 116.5 -80 193.5s35.5 146.5 106.5 208.5s165.5 93 283.5 93s228 -42 330 -126l-133 -139c-75.333 56.667 -144.333 85 -207 85s-111.667 -13.167 -147 -39.5
s-53 -50.5 -53 -72.5s8.83301 -38.833 26.5 -50.5s38.834 -17.5 63.501 -17.5h90c98 0 182.5 -35.5 253.5 -106.5s106.5 -155.5 106.5 -253.5s-26.667 -173 -80 -225c53.333 -52 80 -116.5 80 -193.5s-35.5 -146.5 -106.5 -208.5s-165.5 -93 -283.5 -93s-228 42 -330 126
l133 139c75.333 -56.667 144.333 -85 207 -85s111.667 12.667 147 38s53 49.5 53 72.5s-8.83301 40.333 -26.5 52s-38.834 17.5 -63.501 17.5h-90z" />
    <glyph glyph-name="dieresis" unicode="&#xa8;" 
d="M660 1620c0 -32.667 -11.832 -60.835 -35.499 -84.502s-51.834 -35.5 -84.501 -35.5s-60.834 11.833 -84.501 35.5s-35.5 51.834 -35.5 84.501s11.833 60.834 35.5 84.501s51.834 35.5 84.501 35.5s61 -11.667 85 -35c23.333 -24 35 -52.333 35 -85zM300.001 1620
c0 -32.667 -11.832 -60.835 -35.499 -84.502s-51.834 -35.5 -84.501 -35.5s-60.834 11.833 -84.501 35.5s-35.5 51.834 -35.5 84.501s11.833 60.834 35.5 84.501s51.834 35.5 84.501 35.5s61 -11.667 85 -35c23.333 -24 35 -52.333 35 -85z" />
    <glyph glyph-name="copyright" unicode="&#xa9;" 
d="M170 530c53.333 -53.333 116.666 -80 189.999 -80s136.666 26.667 189.999 80s80 116.666 80 189.999s-26.667 136.666 -80 189.999s-116.666 80 -189.999 80s-136.666 -26.667 -189.999 -80s-80 -116.666 -80 -189.999s26.667 -136.666 80 -189.999zM0 720
c0 98 35.5 182.5 106.5 253.5s155.5 106.5 253.5 106.5s182.5 -35.5 253.5 -106.5s106.5 -155.5 106.5 -253.5s-35.5 -182.5 -106.5 -253.5s-155.5 -106.5 -253.5 -106.5s-182.667 35.333 -254 106c-70.667 71.333 -106 156 -106 254zM275.5 515.5
c-23.667 23.667 -35.5 51.834 -35.5 84.501v240c0 32.667 11.833 60.834 35.5 84.501s51.834 35.5 84.501 35.5s60.834 -11.833 84.501 -35.5s35.5 -51.834 35.5 -84.501h-60c0 16.667 -5.83301 30.834 -17.5 42.501s-25.834 17.5 -42.501 17.5
s-30.834 -5.83301 -42.501 -17.5s-17.5 -25.834 -17.5 -42.501v-240c0 -16.667 5.83301 -30.834 17.5 -42.501s25.834 -17.5 42.501 -17.5s30.834 5.83301 42.501 17.5s17.5 25.834 17.5 42.501h60c0 -32.667 -11.833 -60.834 -35.5 -84.501s-51.834 -35.5 -84.501 -35.5
s-60.834 11.833 -84.501 35.5z" />
    <glyph glyph-name="ordfeminine" unicode="&#xaa;" 
d="M180.029 881.035c-40.0195 47.3564 -60.0283 103.718 -60.0283 169.083s20.0098 121.726 60.0293 169.082s88.2656 71.0352 144.737 71.0352s96.4912 -11.7832 120.059 -35.3506s35.3506 -51.8037 35.3506 -84.709v120.059c0 32.9053 -11.7832 61.1416 -35.3506 84.709
s-51.8037 35.3506 -84.709 35.3506c-40.0195 0 -83.374 -14.4512 -130.063 -43.3545l-63.3643 100.049c62.2529 42.2432 126.729 63.3643 193.428 63.3643c65.3652 0 121.726 -23.6787 169.082 -71.0352s71.0352 -103.717 71.0352 -169.082v-480.234h-120.059v120.059
c0 -32.9053 -11.7832 -61.1416 -35.3506 -84.709s-63.5869 -35.3506 -120.059 -35.3506s-104.718 23.6787 -144.737 71.0352zM360.118 930.06c32.9053 0 61.1416 11.7832 84.709 35.3506s35.3506 51.8037 35.3506 84.709s-11.7832 61.1416 -35.3506 84.709
s-51.8037 35.3506 -84.709 35.3506s-61.1416 -11.7832 -84.709 -35.3506s-35.3506 -51.8037 -35.3506 -84.709s11.7832 -61.1416 35.3506 -84.709s51.8037 -35.3506 84.709 -35.3506zM0.000976562 590.206v120.059h720v-120.059h-720z" />
    <glyph glyph-name="guillemotleft" unicode="&#xab;" 
d="M382.5 720l337.5 270v-200l-202.5 -160l202.5 -160v-200l-337.5 270v180zM0.5 720l337.5 270v-200l-202.5 -160l202.5 -160v-200l-337.5 270v180z" />
    <glyph glyph-name="logicalnot" unicode="&#xac;" 
 />
    <glyph glyph-name="minus" unicode="&#xad;" 
d="M0 630v180h720v-180h-720z" />
    <glyph glyph-name="minus" unicode="&#x2212;" 
d="M0 630v180h720v-180h-720z" />
    <glyph glyph-name="registered" unicode="&#xae;" 
d="M170 530c53.333 -53.333 116.666 -80 189.999 -80s136.666 26.667 189.999 80s80 116.666 80 189.999s-26.667 136.666 -80 189.999s-116.666 80 -189.999 80s-136.666 -26.667 -189.999 -80s-80 -116.666 -80 -189.999s26.667 -136.666 80 -189.999zM0 720
c0 98 35.5 182.5 106.5 253.5s155.5 106.5 253.5 106.5s182.5 -35.5 253.5 -106.5s106.5 -155.5 106.5 -253.5s-35.5 -182.5 -106.5 -253.5s-155.5 -106.5 -253.5 -106.5s-182.667 35.333 -254 106c-70.667 71.333 -106 156 -106 254zM370 960
c32.667 0 60.833 -11.832 84.5 -35.499s35.5 -51.834 35.5 -84.501v-30c0 -32.667 -9.66699 -60 -29 -82s-39 -33.667 -59 -35l98 -213h-70l-87 210h-33v-210h-60v480h120zM429.999 840.001c0 16.667 -5.83301 30.832 -17.5 42.499s-25.834 17.5 -42.501 17.5h-60v-150h60
c16.667 0 30.834 5.83301 42.501 17.5s17.5 25.834 17.5 42.501v30z" />
    <glyph glyph-name="macron" unicode="&#xaf;" 
 />
    <glyph glyph-name="macron" unicode="&#x2c9;" 
 />
    <glyph glyph-name="degree" unicode="&#xb0;" 
d="M90 1350c0 74 26.5 137.5 79.5 190.5s116.5 79.5 190.5 79.5s137.5 -26.5 190.5 -79.5s79.5 -116.5 79.5 -190.5s-26.5 -137.5 -79.5 -190.5s-116.5 -79.5 -190.5 -79.5s-137.333 26.667 -190 80c-53.333 52.667 -80 116 -80 190zM296 1286
c18 -17.333 39.334 -26.001 64.001 -26.001s45.834 8.83301 63.501 26.5s26.5 38.834 26.5 63.501s-8.83301 45.834 -26.5 63.501s-38.834 26.5 -63.501 26.5s-45.834 -8.83301 -63.501 -26.5s-26.5 -38.834 -26.5 -63.501s8.66699 -46 26 -64z" />
    <glyph glyph-name="plusminus" unicode="&#xb1;" 
d="M270 495v270h-270v180h270v270h180v-270h270v-180h-270v-270h-180zM0 225v180h720v-180h-720z" />
    <glyph glyph-name="twosuperior" unicode="&#xb2;" 
d="M270.073 930.059h330.164v-120.059h-480.234v120.059c97.8252 100.938 182.311 195.651 253.456 284.139s106.719 173.862 106.719 256.125c0 32.9053 -11.7832 61.1416 -35.3506 84.709s-51.8037 35.3506 -84.709 35.3506s-61.1416 -11.7832 -84.709 -35.3506
s-35.3506 -51.8037 -35.3506 -84.709h-120.059c0 65.3652 23.6787 121.726 71.0352 169.082s103.717 71.0352 169.082 71.0352s121.726 -23.6787 169.082 -71.0352s71.0352 -103.717 71.0352 -169.082c0 -91.1553 -33.9053 -185.201 -101.717 -282.138
c-67.8105 -96.9365 -143.959 -182.979 -228.444 -258.126z" />
    <glyph glyph-name="threesuperior" unicode="&#xb3;" 
d="M529.199 1639.4c47.3564 -47.3564 71.0352 -103.717 71.0352 -169.082v-30.0146c0 -48.9131 -17.7861 -91.1562 -53.3594 -126.729s-77.8164 -53.3594 -126.729 -53.3594c48.9131 0 91.1562 -17.7861 126.729 -53.3594s53.3594 -77.8164 53.3594 -126.729v-30.0146
c0 -65.3652 -23.6787 -121.726 -71.0352 -169.082s-103.717 -71.0352 -169.082 -71.0352s-121.726 23.6787 -169.082 71.0352s-71.0352 103.717 -71.0352 169.082h120.059c0 -32.9053 11.7832 -61.1416 35.3506 -84.709s51.8037 -35.3506 84.709 -35.3506
s61.1416 11.7832 84.709 35.3506s35.3506 51.8037 35.3506 84.709v30.0146c0 32.9053 -11.7832 61.1416 -35.3506 84.709s-51.8037 35.3506 -84.709 35.3506h-60.0293v120.059h60.0293c32.9053 0 61.1416 11.7832 84.709 35.3506s35.3506 51.8037 35.3506 84.709v30.0146
c0 32.9053 -11.7832 61.1416 -35.3506 84.709s-51.8037 35.3506 -84.709 35.3506s-61.1416 -11.7832 -84.709 -35.3506s-35.3506 -51.8037 -35.3506 -84.709h-120.059c0 65.3652 23.6787 121.726 71.0352 169.082s103.717 71.0352 169.082 71.0352
s121.726 -23.6787 169.082 -71.0352z" />
    <glyph glyph-name="acute" unicode="&#xb4;" 
d="M270 1530l90 270h270l-180 -270h-180z" />
    <glyph glyph-name="mu" unicode="&#xb5;" 
d="M233 53c-35.333 35.333 -52.998 77.667 -52.998 127v-540h-180v1440h180v-720c0 -49.333 17.667 -91.666 53 -126.999s77.666 -53 126.999 -53s91.666 17.667 126.999 53s53 77.666 53 126.999v720h180v-720v-254h-90c-60 -70.667 -132.333 -106 -217 -106
s-144.667 17.667 -180 53z" />
    <glyph glyph-name="mu" unicode="&#x3bc;" 
d="M233 53c-35.333 35.333 -52.998 77.667 -52.998 127v-540h-180v1440h180v-720c0 -49.333 17.667 -91.666 53 -126.999s77.666 -53 126.999 -53s91.666 17.667 126.999 53s53 77.666 53 126.999v720h180v-720v-254h-90c-60 -70.667 -132.333 -106 -217 -106
s-144.667 17.667 -180 53z" />
    <glyph glyph-name="paragraph" unicode="&#xb6;" 
d="M765 1440v-1440h-180v540h-90v-540h-180v540c-98 0 -182.5 35.5 -253.5 106.5s-106.5 155.5 -106.5 253.5v180c0 98 35.5 182.5 106.5 253.5s155.5 106.5 253.5 106.5h450z" />
    <glyph glyph-name="periodcentered" unicode="&#xb7;" 
d="M180 720c0 49.333 17.667 91.666 53 126.999s77.666 53 126.999 53s91.666 -17.667 126.999 -53s53 -77.666 53 -126.999s-17.667 -91.666 -53 -126.999s-77.666 -53 -126.999 -53s-91.666 17.667 -126.999 53s-53 77.666 -53 126.999z" />
    <glyph glyph-name="periodcentered" unicode="&#x2219;" 
d="M180 720c0 49.333 17.667 91.666 53 126.999s77.666 53 126.999 53s91.666 -17.667 126.999 -53s53 -77.666 53 -126.999s-17.667 -91.666 -53 -126.999s-77.666 -53 -126.999 -53s-91.666 17.667 -126.999 53s-53 77.666 -53 126.999z" />
    <glyph glyph-name="cedilla" unicode="&#xb8;" 
d="M405 -40c49.333 0 91.666 -17.6689 126.999 -53.002s53 -77.666 53 -126.999s-17.667 -91.666 -53 -126.999s-77.666 -53 -126.999 -53h-44c-49.333 0 -91.666 17.667 -126.999 53s-53 77.666 -53 126.999h90c0 -24.667 8.66699 -45.834 26 -63.501
s38.666 -26.5 63.999 -26.5h44c25.333 0 46.666 8.83301 63.999 26.5s26 38.834 26 63.501s-8.66699 45.834 -26 63.501s-38.666 26.5 -63.999 26.5h-90v180h90v-90z" />
    <glyph glyph-name="onesuperior" unicode="&#xb9;" 
d="M353.447 810v737.026l-113.389 -120.059v163.413l113.389 120.059h126.729v-900.439h-126.729z" />
    <glyph glyph-name="ordmasculine" unicode="&#xba;" 
d="M191.035 881.035c-47.3564 47.3564 -71.0352 103.717 -71.0352 169.082v240.117c0 65.3652 23.6787 121.726 71.0352 169.082s103.717 71.0352 169.082 71.0352s121.726 -23.6787 169.082 -71.0352s71.0352 -103.717 71.0352 -169.082v-240.117
c0 -65.3652 -23.6787 -121.726 -71.0352 -169.082s-103.717 -71.0352 -169.082 -71.0352s-121.726 23.6787 -169.082 71.0352zM480.176 1290.23c0 32.9053 -11.7832 61.1416 -35.3506 84.709s-51.8037 35.3506 -84.709 35.3506s-61.1416 -11.7832 -84.709 -35.3506
s-35.3506 -51.8037 -35.3506 -84.709v-240.117c0 -32.9053 11.7832 -61.1416 35.3506 -84.709s51.8037 -35.3506 84.709 -35.3506s61.1416 11.7832 84.709 35.3506s35.3506 51.8037 35.3506 84.709v240.117zM0 590.205v120.059h720v-120.059h-720z" />
    <glyph glyph-name="guillemotright" unicode="&#xbb;" 
d="M337.5 540l-337.5 -270v200l202.5 160l-202.5 160v200l337.5 -270v-180zM719.5 540l-337.5 -270v200l202.5 160l-202.5 160v200l337.5 -270v-180z" />
    <glyph glyph-name="onequarter" unicode="&#xbc;" 
d="M325 810v552.5l-85 -90v122.5l85 90h95v-675h-95zM405 -45v135h-225v90l247.5 450h90l-225 -450h112.5v90h90v-90h45v-90h-45v-135h-90zM120 675v90h480.234v-90h-480.234z" />
    <glyph glyph-name="onehalf" unicode="&#xbd;" 
d="M325 810v552.5l-85 -90v122.5l85 90h95v-675h-95zM292.5 45h247.502v-90h-360v90c73.333 75.667 136.666 146.667 189.999 213s80 130.333 80 192c0 24.667 -8.83301 45.834 -26.5 63.501s-38.834 26.5 -63.501 26.5s-45.834 -8.83301 -63.501 -26.5
s-26.5 -38.834 -26.5 -63.501h-90c0 49 17.75 91.25 53.25 126.75s77.75 53.25 126.75 53.25s91.25 -17.75 126.75 -53.25s53.25 -77.75 53.25 -126.75c0 -68.333 -25.417 -138.833 -76.25 -211.5s-107.916 -137.167 -171.249 -193.5zM120.002 675v90h480.234v-90h-480.234z
" />
    <glyph glyph-name="threequarters" unicode="&#xbe;" 
d="M486.75 1431.75c35.5 -35.5 53.25 -77.75 53.25 -126.75v-22.5c0 -36.667 -13.333 -68.334 -40 -95.001s-58.334 -40 -95.001 -40c36.667 0 68.334 -13.333 95.001 -40s40 -58.334 40 -95.001v-22.5c0 -49 -17.75 -91.25 -53.25 -126.75s-77.75 -53.25 -126.75 -53.25
s-91.25 17.75 -126.75 53.25s-53.25 77.75 -53.25 126.75h90c0 -24.667 8.83301 -45.834 26.5 -63.501s38.834 -26.5 63.501 -26.5s45.834 8.83301 63.501 26.5s26.5 38.834 26.5 63.501v22.5c0 24.667 -8.83301 45.834 -26.5 63.501s-38.834 26.5 -63.501 26.5h-45v90h45
c24.667 0 45.834 8.83301 63.501 26.5s26.5 38.834 26.5 63.501v22.5c0 24.667 -8.83301 45.834 -26.5 63.501s-38.834 26.5 -63.501 26.5s-45.834 -8.83301 -63.501 -26.5s-26.5 -38.834 -26.5 -63.501h-90c0 49 17.75 91.25 53.25 126.75s77.75 53.25 126.75 53.25
s91.25 -17.75 126.75 -53.25zM405 -45v135h-225v90l247.5 450h90l-225 -450h112.5v90h90v-90h45v-90h-45v-135h-90zM120 675v90h480.234v-90h-480.234z" />
    <glyph glyph-name="questiondown" unicode="&#xbf;" 
d="M344 407l-110.998 -115c-35.333 -35.333 -53 -77.666 -53 -126.999v-165c0 -49.333 17.667 -91.666 53 -126.999s77.666 -53 126.999 -53s91.666 17.667 126.999 53s53 77.666 53 126.999h180c0 -98 -35.5 -182.5 -106.5 -253.5s-155.5 -106.5 -253.5 -106.5
s-182.5 35.5 -253.5 106.5s-106.5 155.5 -106.5 253.5v165c-0 98 35.333 182.333 106 253l90 94c49.333 49.333 74 98.666 74 147.999v60h180v-60c0 -98 -35.333 -182.333 -106 -253zM240.002 990c0 32.667 11.832 60.835 35.499 84.502s51.834 35.5 84.501 35.5
s60.834 -11.833 84.501 -35.5s35.5 -51.834 35.5 -84.501s-11.833 -60.834 -35.5 -84.501s-51.834 -35.5 -84.501 -35.5s-61 11.667 -85 35c-23.333 24 -35 52.333 -35 85z" />
    <glyph glyph-name="Agrave" unicode="&#xc0;" 
d="M450 1440l310 -1440h-200l-50 270h-300l-50 -270h-200l310 1440h180zM480 450l-120 770l-120 -770h240zM270 1530l-180 270h270l90 -270h-180z" />
    <glyph glyph-name="Aacute" unicode="&#xc1;" 
d="M450 1440l310 -1440h-200l-50 270h-300l-50 -270h-200l310 1440h180zM480 450l-120 770l-120 -770h240zM270 1530l90 270h270l-180 -270h-180z" />
    <glyph glyph-name="Acircumflex" unicode="&#xc2;" 
d="M450 1440l310 -1440h-200l-50 270h-300l-50 -270h-200l310 1440h180zM480 450l-120 770l-120 -770h240zM450 1800l270 -270h-200l-160 180l-160 -180h-200l270 270h180z" />
    <glyph glyph-name="Atilde" unicode="&#xc3;" 
d="M450 1440l310 -1440h-200l-50 270h-300l-50 -270h-200l310 1440h180zM480 450l-120 770l-120 -770h240zM240 1800c65.333 0 113.5 -22.5 144.5 -67.5s62.833 -67.5 95.5 -67.5s60.834 13.167 84.501 39.5s35.5 58.166 35.5 95.499h120
c0 -73.333 -23.667 -136.666 -71 -189.999s-103.666 -80 -168.999 -80s-113.5 22.5 -144.5 67.5s-62.833 67.5 -95.5 67.5s-60.834 -13.167 -84.501 -39.5s-35.5 -58.166 -35.5 -95.499h-120c0 73.333 23.667 136.666 71 189.999s103.666 80 168.999 80z" />
    <glyph glyph-name="Adieresis" unicode="&#xc4;" 
d="M450 1440l310 -1440h-200l-50 270h-300l-50 -270h-200l310 1440h180zM480 450l-120 770l-120 -770h240zM660 1620c0 -32.667 -11.832 -60.835 -35.499 -84.502s-51.834 -35.5 -84.501 -35.5s-60.834 11.833 -84.501 35.5s-35.5 51.834 -35.5 84.501
s11.833 60.834 35.5 84.501s51.834 35.5 84.501 35.5s61 -11.667 85 -35c23.333 -24 35 -52.333 35 -85zM300.001 1620c0 -32.667 -11.832 -60.835 -35.499 -84.502s-51.834 -35.5 -84.501 -35.5s-60.834 11.833 -84.501 35.5s-35.5 51.834 -35.5 84.501
s11.833 60.834 35.5 84.501s51.834 35.5 84.501 35.5s61 -11.667 85 -35c23.333 -24 35 -52.333 35 -85z" />
    <glyph glyph-name="Aring" unicode="&#xc5;" 
d="M450 1440l310 -1440h-200l-50 270h-300l-50 -270h-200l310 1440h180zM480 450l-120 770l-120 -770h240zM297 1635c17.333 -8.66699 38.334 -13 63.001 -13s45.834 4.33301 63.501 13s26.5 19.167 26.5 31.5s-8.83301 23 -26.5 32s-38.834 13.5 -63.501 13.5
s-45.834 -4.5 -63.501 -13.5s-26.5 -19.667 -26.5 -32s9 -22.833 27 -31.5zM180.001 1665c0 36.667 17.667 68.334 53 95.001s77.666 40 126.999 40s91.666 -13.333 126.999 -40s53 -58.334 53 -95.001s-17.667 -68.334 -53 -95.001s-77.666 -40 -126.999 -40
s-91.666 13.333 -126.999 40s-53 58.334 -53 95.001z" />
    <glyph glyph-name="AE" unicode="&#xc6;" 
d="M-40 0l310 1440h450v-180h-225v-450h135v-180h-135v-450h225v-180h-405v270h-105l-50 -270h-200zM315 450v470l-75 -470h75z" />
    <glyph glyph-name="Ccedilla" unicode="&#xc7;" 
d="M106.5 106.5c-71 71 -106.5 155.5 -106.5 253.5v720c0 98 35.5 182.5 106.5 253.5s155.5 106.5 253.5 106.5s182.5 -35.5 253.5 -106.5s106.5 -155.5 106.5 -253.5h-180c0 49.333 -17.667 91.666 -53 126.999s-77.666 53 -126.999 53s-91.666 -17.667 -126.999 -53
s-53 -77.666 -53 -126.999v-720c0 -49.333 17.667 -91.666 53 -126.999s77.666 -53 126.999 -53s91.666 17.667 126.999 53s53 77.666 53 126.999h180c0 -98 -35.5 -182.5 -106.5 -253.5s-155.5 -106.5 -253.5 -106.5s-182.5 35.5 -253.5 106.5zM405 -40
c49.333 0 91.666 -17.6689 126.999 -53.002s53 -77.666 53 -126.999s-17.667 -91.666 -53 -126.999s-77.666 -53 -126.999 -53h-44c-49.333 0 -91.666 17.667 -126.999 53s-53 77.666 -53 126.999h90c0 -24.667 8.66699 -45.834 26 -63.501s38.666 -26.5 63.999 -26.5h44
c25.333 0 46.666 8.83301 63.999 26.5s26 38.834 26 63.501s-8.66699 45.834 -26 63.501s-38.666 26.5 -63.999 26.5h-90v180h90v-90z" />
    <glyph glyph-name="Egrave" unicode="&#xc8;" 
d="M0 0v1440h720v-180h-540v-450h360v-180h-360v-450h540v-180h-720zM270 1530l-180 270h270l90 -270h-180z" />
    <glyph glyph-name="Eacute" unicode="&#xc9;" 
d="M0 0v1440h720v-180h-540v-450h360v-180h-360v-450h540v-180h-720zM270 1530l90 270h270l-180 -270h-180z" />
    <glyph glyph-name="Ecircumflex" unicode="&#xca;" 
d="M0 0v1440h720v-180h-540v-450h360v-180h-360v-450h540v-180h-720zM450 1800l270 -270h-200l-160 180l-160 -180h-200l270 270h180z" />
    <glyph glyph-name="Edieresis" unicode="&#xcb;" 
d="M0 0v1440h720v-180h-540v-450h360v-180h-360v-450h540v-180h-720zM660 1620c0 -32.667 -11.832 -60.835 -35.499 -84.502s-51.834 -35.5 -84.501 -35.5s-60.834 11.833 -84.501 35.5s-35.5 51.834 -35.5 84.501s11.833 60.834 35.5 84.501s51.834 35.5 84.501 35.5
s61 -11.667 85 -35c23.333 -24 35 -52.333 35 -85zM300.001 1620c0 -32.667 -11.832 -60.835 -35.499 -84.502s-51.834 -35.5 -84.501 -35.5s-60.834 11.833 -84.501 35.5s-35.5 51.834 -35.5 84.501s11.833 60.834 35.5 84.501s51.834 35.5 84.501 35.5s61 -11.667 85 -35
c23.333 -24 35 -52.333 35 -85z" />
    <glyph glyph-name="Igrave" unicode="&#xcc;" 
d="M90 0v180h180v1080h-180v180h540v-180h-180v-1080h180v-180h-540zM270 1530l-180 270h270l90 -270h-180z" />
    <glyph glyph-name="Iacute" unicode="&#xcd;" 
d="M90 0v180h180v1080h-180v180h540v-180h-180v-1080h180v-180h-540zM270 1530l90 270h270l-180 -270h-180z" />
    <glyph glyph-name="Icircumflex" unicode="&#xce;" 
d="M90 0v180h180v1080h-180v180h540v-180h-180v-1080h180v-180h-540zM450 1800l270 -270h-200l-160 180l-160 -180h-200l270 270h180z" />
    <glyph glyph-name="Idieresis" unicode="&#xcf;" 
d="M90 0v180h180v1080h-180v180h540v-180h-180v-1080h180v-180h-540zM660 1620c0 -32.667 -11.832 -60.835 -35.499 -84.502s-51.834 -35.5 -84.501 -35.5s-60.834 11.833 -84.501 35.5s-35.5 51.834 -35.5 84.501s11.833 60.834 35.5 84.501s51.834 35.5 84.501 35.5
s61 -11.667 85 -35c23.333 -24 35 -52.333 35 -85zM300.001 1620c0 -32.667 -11.832 -60.835 -35.499 -84.502s-51.834 -35.5 -84.501 -35.5s-60.834 11.833 -84.501 35.5s-35.5 51.834 -35.5 84.501s11.833 60.834 35.5 84.501s51.834 35.5 84.501 35.5s61 -11.667 85 -35
c23.333 -24 35 -52.333 35 -85z" />
    <glyph glyph-name="Eth" unicode="&#xd0;" 
d="M0 0v180h90v450h-90v180h90v450h-90v180h360c98 0 182.5 -35.5 253.5 -106.5s106.5 -155.5 106.5 -253.5v-720c0 -98 -35.5 -182.5 -106.5 -253.5s-155.5 -106.5 -253.5 -106.5h-360zM540 1080c0 49.333 -17.667 91.668 -53 127.001s-77.666 53 -126.999 53h-90v-450h135
v-180h-135v-450h90c49.333 0 91.666 17.667 126.999 53s53 77.666 53 126.999v720z" />
    <glyph glyph-name="Ntilde" unicode="&#xd1;" 
d="M0 0v1440h180l360 -990v990h180v-1440h-180l-360 990v-990h-180zM240 1800c65.333 0 113.5 -22.5 144.5 -67.5s62.833 -67.5 95.5 -67.5s60.834 13.167 84.501 39.5s35.5 58.166 35.5 95.499h120c0 -73.333 -23.667 -136.666 -71 -189.999s-103.666 -80 -168.999 -80
s-113.5 22.5 -144.5 67.5s-62.833 67.5 -95.5 67.5s-60.834 -13.167 -84.501 -39.5s-35.5 -58.166 -35.5 -95.499h-120c0 73.333 23.667 136.666 71 189.999s103.666 80 168.999 80z" />
    <glyph glyph-name="Ograve" unicode="&#xd2;" 
d="M106.5 106.5c-71 71 -106.5 155.5 -106.5 253.5v720c0 98 35.5 182.5 106.5 253.5s155.5 106.5 253.5 106.5s182.5 -35.5 253.5 -106.5s106.5 -155.5 106.5 -253.5v-720c0 -98 -35.5 -182.5 -106.5 -253.5s-155.5 -106.5 -253.5 -106.5s-182.5 35.5 -253.5 106.5z
M540 1080c0 49.333 -17.667 91.666 -53 126.999s-77.666 53 -126.999 53s-91.666 -17.667 -126.999 -53s-53 -77.666 -53 -126.999v-720c0 -49.333 17.667 -91.666 53 -126.999s77.666 -53 126.999 -53s91.666 17.667 126.999 53s53 77.666 53 126.999v720zM270 1530
l-180 270h270l90 -270h-180z" />
    <glyph glyph-name="Oacute" unicode="&#xd3;" 
d="M106.5 106.5c-71 71 -106.5 155.5 -106.5 253.5v720c0 98 35.5 182.5 106.5 253.5s155.5 106.5 253.5 106.5s182.5 -35.5 253.5 -106.5s106.5 -155.5 106.5 -253.5v-720c0 -98 -35.5 -182.5 -106.5 -253.5s-155.5 -106.5 -253.5 -106.5s-182.5 35.5 -253.5 106.5z
M540 1080c0 49.333 -17.667 91.666 -53 126.999s-77.666 53 -126.999 53s-91.666 -17.667 -126.999 -53s-53 -77.666 -53 -126.999v-720c0 -49.333 17.667 -91.666 53 -126.999s77.666 -53 126.999 -53s91.666 17.667 126.999 53s53 77.666 53 126.999v720zM270 1530l90 270
h270l-180 -270h-180z" />
    <glyph glyph-name="Ocircumflex" unicode="&#xd4;" 
d="M106.5 106.5c-71 71 -106.5 155.5 -106.5 253.5v720c0 98 35.5 182.5 106.5 253.5s155.5 106.5 253.5 106.5s182.5 -35.5 253.5 -106.5s106.5 -155.5 106.5 -253.5v-720c0 -98 -35.5 -182.5 -106.5 -253.5s-155.5 -106.5 -253.5 -106.5s-182.5 35.5 -253.5 106.5z
M540 1080c0 49.333 -17.667 91.666 -53 126.999s-77.666 53 -126.999 53s-91.666 -17.667 -126.999 -53s-53 -77.666 -53 -126.999v-720c0 -49.333 17.667 -91.666 53 -126.999s77.666 -53 126.999 -53s91.666 17.667 126.999 53s53 77.666 53 126.999v720zM450 1800
l270 -270h-200l-160 180l-160 -180h-200l270 270h180z" />
    <glyph glyph-name="Otilde" unicode="&#xd5;" 
d="M106.5 106.5c-71 71 -106.5 155.5 -106.5 253.5v720c0 98 35.5 182.5 106.5 253.5s155.5 106.5 253.5 106.5s182.5 -35.5 253.5 -106.5s106.5 -155.5 106.5 -253.5v-720c0 -98 -35.5 -182.5 -106.5 -253.5s-155.5 -106.5 -253.5 -106.5s-182.5 35.5 -253.5 106.5z
M540 1080c0 49.333 -17.667 91.666 -53 126.999s-77.666 53 -126.999 53s-91.666 -17.667 -126.999 -53s-53 -77.666 -53 -126.999v-720c0 -49.333 17.667 -91.666 53 -126.999s77.666 -53 126.999 -53s91.666 17.667 126.999 53s53 77.666 53 126.999v720zM660 1620
c0 -32.667 -11.832 -60.835 -35.499 -84.502s-51.834 -35.5 -84.501 -35.5s-60.834 11.833 -84.501 35.5s-35.5 51.834 -35.5 84.501s11.833 60.834 35.5 84.501s51.834 35.5 84.501 35.5s61 -11.667 85 -35c23.333 -24 35 -52.333 35 -85zM300.001 1620
c0 -32.667 -11.832 -60.835 -35.499 -84.502s-51.834 -35.5 -84.501 -35.5s-60.834 11.833 -84.501 35.5s-35.5 51.834 -35.5 84.501s11.833 60.834 35.5 84.501s51.834 35.5 84.501 35.5s61 -11.667 85 -35c23.333 -24 35 -52.333 35 -85z" />
    <glyph glyph-name="Odieresis" unicode="&#xd6;" 
d="M106.5 106.5c-71 71 -106.5 155.5 -106.5 253.5v720c0 98 35.5 182.5 106.5 253.5s155.5 106.5 253.5 106.5s182.5 -35.5 253.5 -106.5s106.5 -155.5 106.5 -253.5v-720c0 -98 -35.5 -182.5 -106.5 -253.5s-155.5 -106.5 -253.5 -106.5s-182.5 35.5 -253.5 106.5z
M540 1080c0 49.333 -17.667 91.666 -53 126.999s-77.666 53 -126.999 53s-91.666 -17.667 -126.999 -53s-53 -77.666 -53 -126.999v-720c0 -49.333 17.667 -91.666 53 -126.999s77.666 -53 126.999 -53s91.666 17.667 126.999 53s53 77.666 53 126.999v720zM660 1620
c0 -32.667 -11.832 -60.835 -35.499 -84.502s-51.834 -35.5 -84.501 -35.5s-60.834 11.833 -84.501 35.5s-35.5 51.834 -35.5 84.501s11.833 60.834 35.5 84.501s51.834 35.5 84.501 35.5s61 -11.667 85 -35c23.333 -24 35 -52.333 35 -85zM300.001 1620
c0 -32.667 -11.832 -60.835 -35.499 -84.502s-51.834 -35.5 -84.501 -35.5s-60.834 11.833 -84.501 35.5s-35.5 51.834 -35.5 84.501s11.833 60.834 35.5 84.501s51.834 35.5 84.501 35.5s61 -11.667 85 -35c23.333 -24 35 -52.333 35 -85z" />
    <glyph glyph-name="multiply" unicode="&#xd7;" 
d="M0 487l233 233l-233 233l127 127l233 -233l233 233l127 -127l-233 -233l233 -233l-127 -127l-233 233l-233 -233z" />
    <glyph glyph-name="Oslash" unicode="&#xd8;" 
d="M106.5 106.5c-71 71 -106.5 155.5 -106.5 253.5v720c0 98 35.5 182.5 106.5 253.5s155.5 106.5 253.5 106.5s182.5 -35.5 253.5 -106.5s106.5 -155.5 106.5 -253.5v-720c0 -98 -35.5 -182.5 -106.5 -253.5s-155.5 -106.5 -253.5 -106.5s-182.5 35.5 -253.5 106.5z
M180 585l359.998 495c0 49.333 -17.667 91.666 -53 126.999s-77.666 53 -126.999 53s-91.666 -17.667 -126.999 -53s-53 -77.666 -53 -126.999v-495zM539.998 855l-359.998 -495c0 -49.333 17.667 -91.666 53 -126.999s77.666 -53 126.999 -53s91.666 17.667 126.999 53
s53 77.666 53 126.999v495z" />
    <glyph glyph-name="Ugrave" unicode="&#xd9;" 
d="M106.5 106.5c-71 71 -106.498 155.5 -106.498 253.5v1080h180v-1080c0 -49.333 17.667 -91.666 53 -126.999s77.666 -53 126.999 -53s91.666 17.667 126.999 53s53 77.666 53 126.999v1080h180v-1080c0 -98 -35.5 -182.5 -106.5 -253.5s-155.5 -106.5 -253.5 -106.5
s-182.5 35.5 -253.5 106.5zM270.002 1530l-180 270h270l90 -270h-180z" />
    <glyph glyph-name="Uacute" unicode="&#xda;" 
d="M106.5 106.5c-71 71 -106.498 155.5 -106.498 253.5v1080h180v-1080c0 -49.333 17.667 -91.666 53 -126.999s77.666 -53 126.999 -53s91.666 17.667 126.999 53s53 77.666 53 126.999v1080h180v-1080c0 -98 -35.5 -182.5 -106.5 -253.5s-155.5 -106.5 -253.5 -106.5
s-182.5 35.5 -253.5 106.5zM270.002 1530l90 270h270l-180 -270h-180z" />
    <glyph glyph-name="Ucircumflex" unicode="&#xdb;" 
d="M106.5 106.5c-71 71 -106.498 155.5 -106.498 253.5v1080h180v-1080c0 -49.333 17.667 -91.666 53 -126.999s77.666 -53 126.999 -53s91.666 17.667 126.999 53s53 77.666 53 126.999v1080h180v-1080c0 -98 -35.5 -182.5 -106.5 -253.5s-155.5 -106.5 -253.5 -106.5
s-182.5 35.5 -253.5 106.5zM450.002 1800l270 -270h-200l-160 180l-160 -180h-200l270 270h180z" />
    <glyph glyph-name="Udieresis" unicode="&#xdc;" 
d="M106.5 106.5c-71 71 -106.498 155.5 -106.498 253.5v1080h180v-1080c0 -49.333 17.667 -91.666 53 -126.999s77.666 -53 126.999 -53s91.666 17.667 126.999 53s53 77.666 53 126.999v1080h180v-1080c0 -98 -35.5 -182.5 -106.5 -253.5s-155.5 -106.5 -253.5 -106.5
s-182.5 35.5 -253.5 106.5zM660.002 1620c0 -32.667 -11.832 -60.835 -35.499 -84.502s-51.834 -35.5 -84.501 -35.5s-60.834 11.833 -84.501 35.5s-35.5 51.834 -35.5 84.501s11.833 60.834 35.5 84.501s51.834 35.5 84.501 35.5s61 -11.667 85 -35
c23.333 -24 35 -52.333 35 -85zM300.003 1620c0 -32.667 -11.832 -60.835 -35.499 -84.502s-51.834 -35.5 -84.501 -35.5s-60.834 11.833 -84.501 35.5s-35.5 51.834 -35.5 84.501s11.833 60.834 35.5 84.501s51.834 35.5 84.501 35.5s61 -11.667 85 -35
c23.333 -24 35 -52.333 35 -85z" />
    <glyph glyph-name="Yacute" unicode="&#xdd;" 
d="M270 360l-270 1080h200l160 -860l160 860h200l-270 -1080v-360h-180v360zM270 1530l90 270h270l-180 -270h-180z" />
    <glyph glyph-name="Thorn" unicode="&#xde;" 
d="M360 1260c98 0 182.5 -35.5 253.5 -106.5s106.5 -155.5 106.5 -253.5v-180c0 -98 -35.5 -182.5 -106.5 -253.5s-155.5 -106.5 -253.5 -106.5h-180v-360h-180v1440h180v-180h180zM540 900c0 49.333 -17.667 91.668 -53 127.001s-77.666 53 -126.999 53h-180v-540h180
c49.333 0 91.666 17.667 126.999 53s53 77.666 53 126.999v180z" />
    <glyph glyph-name="germandbls" unicode="&#xdf;" 
d="M512 205.5c35.333 17 53.001 49.4971 53.001 97.4971s-16.833 84.5 -50.5 109.5l-115 82.5c-43 30 -78.667 66.833 -107 110.5s-38.333 100.167 -30 169.5s30.5 125 66.5 167s67.167 80.5 93.5 115.5s32.666 75.833 18.999 122.5s-52.5 73.334 -116.5 80.001
c-39.333 0 -73.333 -17.667 -102 -53s-43 -77.666 -43 -126.999v-1080h-180v900h-45v180h45c0 98 28 182.5 84 253.5s133.667 106.5 233 106.5c91.333 0 161.166 -21 209.499 -63s79.166 -87.667 92.499 -137s15.833 -98.666 7.5 -147.999s-25.166 -90.333 -50.499 -123
s-52.666 -65.5 -81.999 -98.5s-44 -68 -44 -105s7.16699 -64.667 21.5 -83s35.5 -37.5 63.5 -57.5s70 -55.167 126 -105.5s84 -123.5 84 -219.5s-35.5 -170 -106.5 -222s-150.5 -78 -238.5 -78s-148 13.667 -180 41l78 164c35.333 -16.667 71 -25 107 -25
s71.667 8.5 107 25.5z" />
    <glyph glyph-name="agrave" unicode="&#xe0;" 
d="M90 106.5c-60 71 -90.001 155.499 -90.001 253.499s30 182.5 90 253.5s132.333 106.5 217 106.5s144.667 -17.667 180 -53s53 -77.666 53 -126.999v180c0 49.333 -17.667 91.666 -53 126.999s-77.666 53 -126.999 53c-60 0 -125 -21.667 -195 -65l-95 150
c93.333 63.333 190 95 290 95c98 0 182.5 -35.5 253.5 -106.5s106.5 -155.5 106.5 -253.5v-720h-180v180c0 -49.333 -17.667 -91.666 -53 -126.999s-95.333 -53 -180 -53s-157 35.5 -217 106.5zM359.999 179.999c49.333 0 91.666 17.667 126.999 53s53 77.666 53 126.999
s-17.667 91.666 -53 126.999s-77.666 53 -126.999 53s-91.666 -17.667 -126.999 -53s-53 -77.666 -53 -126.999s17.667 -91.666 53 -126.999s77.666 -53 126.999 -53zM269.999 1230l-180 270h270l90 -270h-180z" />
    <glyph glyph-name="aacute" unicode="&#xe1;" 
d="M90 106.5c-60 71 -90.001 155.499 -90.001 253.499s30 182.5 90 253.5s132.333 106.5 217 106.5s144.667 -17.667 180 -53s53 -77.666 53 -126.999v180c0 49.333 -17.667 91.666 -53 126.999s-77.666 53 -126.999 53c-60 0 -125 -21.667 -195 -65l-95 150
c93.333 63.333 190 95 290 95c98 0 182.5 -35.5 253.5 -106.5s106.5 -155.5 106.5 -253.5v-720h-180v180c0 -49.333 -17.667 -91.666 -53 -126.999s-95.333 -53 -180 -53s-157 35.5 -217 106.5zM359.999 179.999c49.333 0 91.666 17.667 126.999 53s53 77.666 53 126.999
s-17.667 91.666 -53 126.999s-77.666 53 -126.999 53s-91.666 -17.667 -126.999 -53s-53 -77.666 -53 -126.999s17.667 -91.666 53 -126.999s77.666 -53 126.999 -53zM269.999 1230l90 270h270l-180 -270h-180z" />
    <glyph glyph-name="acircumflex" unicode="&#xe2;" 
d="M90 106.5c-60 71 -90.001 155.499 -90.001 253.499s30 182.5 90 253.5s132.333 106.5 217 106.5s144.667 -17.667 180 -53s53 -77.666 53 -126.999v180c0 49.333 -17.667 91.666 -53 126.999s-77.666 53 -126.999 53c-60 0 -125 -21.667 -195 -65l-95 150
c93.333 63.333 190 95 290 95c98 0 182.5 -35.5 253.5 -106.5s106.5 -155.5 106.5 -253.5v-720h-180v180c0 -49.333 -17.667 -91.666 -53 -126.999s-95.333 -53 -180 -53s-157 35.5 -217 106.5zM359.999 179.999c49.333 0 91.666 17.667 126.999 53s53 77.666 53 126.999
s-17.667 91.666 -53 126.999s-77.666 53 -126.999 53s-91.666 -17.667 -126.999 -53s-53 -77.666 -53 -126.999s17.667 -91.666 53 -126.999s77.666 -53 126.999 -53zM449.999 1500l270 -270h-200l-160 180l-160 -180h-200l270 270h180z" />
    <glyph glyph-name="atilde" unicode="&#xe3;" 
d="M90 106.5c-60 71 -90.001 155.499 -90.001 253.499s30 182.5 90 253.5s132.333 106.5 217 106.5s144.667 -17.667 180 -53s53 -77.666 53 -126.999v180c0 49.333 -17.667 91.666 -53 126.999s-77.666 53 -126.999 53c-60 0 -125 -21.667 -195 -65l-95 150
c93.333 63.333 190 95 290 95c98 0 182.5 -35.5 253.5 -106.5s106.5 -155.5 106.5 -253.5v-720h-180v180c0 -49.333 -17.667 -91.666 -53 -126.999s-95.333 -53 -180 -53s-157 35.5 -217 106.5zM359.999 179.999c49.333 0 91.666 17.667 126.999 53s53 77.666 53 126.999
s-17.667 91.666 -53 126.999s-77.666 53 -126.999 53s-91.666 -17.667 -126.999 -53s-53 -77.666 -53 -126.999s17.667 -91.666 53 -126.999s77.666 -53 126.999 -53zM239.999 1500c65.333 0 113.5 -22.5 144.5 -67.5s62.833 -67.5 95.5 -67.5s60.834 13.167 84.501 39.5
s35.5 58.166 35.5 95.499h120c0 -73.333 -23.667 -136.666 -71 -189.999s-103.666 -80 -168.999 -80s-113.5 22.5 -144.5 67.5s-62.833 67.5 -95.5 67.5s-60.834 -13.167 -84.501 -39.5s-35.5 -58.166 -35.5 -95.499h-120c0 73.333 23.667 136.666 71 189.999
s103.666 80 168.999 80z" />
    <glyph glyph-name="adieresis" unicode="&#xe4;" 
d="M90 106.5c-60 71 -90.001 155.499 -90.001 253.499s30 182.5 90 253.5s132.333 106.5 217 106.5s144.667 -17.667 180 -53s53 -77.666 53 -126.999v180c0 49.333 -17.667 91.666 -53 126.999s-77.666 53 -126.999 53c-60 0 -125 -21.667 -195 -65l-95 150
c93.333 63.333 190 95 290 95c98 0 182.5 -35.5 253.5 -106.5s106.5 -155.5 106.5 -253.5v-720h-180v180c0 -49.333 -17.667 -91.666 -53 -126.999s-95.333 -53 -180 -53s-157 35.5 -217 106.5zM359.999 179.999c49.333 0 91.666 17.667 126.999 53s53 77.666 53 126.999
s-17.667 91.666 -53 126.999s-77.666 53 -126.999 53s-91.666 -17.667 -126.999 -53s-53 -77.666 -53 -126.999s17.667 -91.666 53 -126.999s77.666 -53 126.999 -53zM659.999 1320c0 -32.667 -11.832 -60.835 -35.499 -84.502s-51.834 -35.5 -84.501 -35.5
s-60.834 11.833 -84.501 35.5s-35.5 51.834 -35.5 84.501s11.833 60.834 35.5 84.501s51.834 35.5 84.501 35.5s61 -11.667 85 -35c23.333 -24 35 -52.333 35 -85zM300 1320c0 -32.667 -11.832 -60.835 -35.499 -84.502s-51.834 -35.5 -84.501 -35.5
s-60.834 11.833 -84.501 35.5s-35.5 51.834 -35.5 84.501s11.833 60.834 35.5 84.501s51.834 35.5 84.501 35.5s61 -11.667 85 -35c23.333 -24 35 -52.333 35 -85z" />
    <glyph glyph-name="aring" unicode="&#xe5;" 
d="M90 106.5c-60 71 -90.001 155.499 -90.001 253.499s30 182.5 90 253.5s132.333 106.5 217 106.5s144.667 -17.667 180 -53s53 -77.666 53 -126.999v180c0 49.333 -17.667 91.666 -53 126.999s-77.666 53 -126.999 53c-60 0 -125 -21.667 -195 -65l-95 150
c93.333 63.333 190 95 290 95c98 0 182.5 -35.5 253.5 -106.5s106.5 -155.5 106.5 -253.5v-720h-180v180c0 -49.333 -17.667 -91.666 -53 -126.999s-95.333 -53 -180 -53s-157 35.5 -217 106.5zM359.999 179.999c49.333 0 91.666 17.667 126.999 53s53 77.666 53 126.999
s-17.667 91.666 -53 126.999s-77.666 53 -126.999 53s-91.666 -17.667 -126.999 -53s-53 -77.666 -53 -126.999s17.667 -91.666 53 -126.999s77.666 -53 126.999 -53zM296.999 1335c17.333 -8.66699 38.334 -13 63.001 -13s45.834 4.33301 63.501 13s26.5 19.167 26.5 31.5
s-8.83301 23 -26.5 32s-38.834 13.5 -63.501 13.5s-45.834 -4.5 -63.501 -13.5s-26.5 -19.667 -26.5 -32s9 -22.833 27 -31.5zM180 1365c0 36.667 17.667 68.334 53 95.001s77.666 40 126.999 40s91.666 -13.333 126.999 -40s53 -58.334 53 -95.001
s-17.667 -68.334 -53 -95.001s-77.666 -40 -126.999 -40s-91.666 13.333 -126.999 40s-53 58.334 -53 95.001z" />
    <glyph glyph-name="ae" unicode="&#xe6;" 
d="M697.5 997.5c45 -55 67.501 -147.498 67.501 -277.498v-270h-315v-90c0 -49.333 6.16699 -91.666 18.5 -126.999s40.166 -53 83.499 -53s82.666 18.333 117.999 55l105 -129c-58.667 -70.667 -126.834 -106.334 -204.501 -107.001s-130.167 11.666 -157.5 36.999
s-45 53.333 -53 84c-30 -80 -82.5 -120 -157.5 -120s-135 27.5 -180 82.5s-67.5 147.5 -67.5 277.5c0 98 17.5 182.5 52.5 253.5s80 106.5 135 106.5s90 -12.5 105 -37.5s22.5 -57.5 22.5 -97.5v135c0 49.333 -6.16699 91.666 -18.5 126.999s-40.166 53 -83.499 53
s-82.666 -18.333 -117.999 -55l-95 129c52 70.667 125 106 219 106s156 -40 186 -120c30 80 82.5 120 157.5 120s135 -27.5 180 -82.5zM566.501 847.002c-12.333 35.333 -28.668 53 -49.001 53s-36.666 -17.667 -48.999 -53s-18.5 -77.666 -18.5 -126.999v-90h135v90
c0 49.333 -6.16699 91.666 -18.5 126.999zM269.999 360.002c0 49.333 -6.16699 91.666 -18.5 126.999s-28.666 53 -48.999 53s-36.666 -17.667 -48.999 -53s-18.5 -77.666 -18.5 -126.999s6.16699 -91.666 18.5 -126.999s28.666 -53 48.999 -53s36.666 17.667 48.999 53
s18.5 77.666 18.5 126.999v0z" />
    <glyph glyph-name="ccedilla" unicode="&#xe7;" 
d="M106.5 106.5c-71 71 -106.5 155.498 -106.5 253.498v360c0 98 35.5 182.5 106.5 253.5s165.5 106.5 283.5 106.5s228 -42 330 -126l-133 -139c-75.333 56.667 -144.333 85 -207 85s-111.667 -17.667 -147 -53s-53 -77.666 -53 -126.999v-360
c0 -49.333 17.667 -91.666 53 -126.999s84.333 -53 147 -53s131.667 28.333 207 85l133 -139c-102 -84 -212 -126 -330 -126s-212.5 35.5 -283.5 106.5zM405 -40.002c49.333 0 91.666 -17.6689 126.999 -53.002s53 -77.666 53 -126.999s-17.667 -91.666 -53 -126.999
s-77.666 -53 -126.999 -53h-44c-49.333 0 -91.666 17.667 -126.999 53s-53 77.666 -53 126.999h90c0 -24.667 8.66699 -45.834 26 -63.501s38.666 -26.5 63.999 -26.5h44c25.333 0 46.666 8.83301 63.999 26.5s26 38.834 26 63.501s-8.66699 45.834 -26 63.501
s-38.666 26.5 -63.999 26.5h-90v180h90v-90z" />
    <glyph glyph-name="egrave" unicode="&#xe8;" 
d="M106.5 106.5c-71 71 -106.498 155.499 -106.498 253.499v360c0 98 35.5 182.5 106.5 253.5s155.5 106.5 253.5 106.5s182.5 -35.5 253.5 -106.5s106.5 -155.5 106.5 -253.5v-270h-540v-90c0 -49.333 17.667 -91.666 53 -126.999s92.666 -53 171.999 -53
s136.666 18.333 171.999 55l143 -129c-82 -70.667 -187 -106 -315 -106s-227.5 35.5 -298.5 106.5zM487.002 846.999c-35.333 35.333 -77.668 53 -127.001 53s-91.666 -17.667 -126.999 -53s-53 -77.666 -53 -126.999v-90h360v90c0 49.333 -17.667 91.666 -53 126.999z
M270 1230l-180 270h270l90 -270h-180z" />
    <glyph glyph-name="eacute" unicode="&#xe9;" 
d="M106.5 106.5c-71 71 -106.498 155.499 -106.498 253.499v360c0 98 35.5 182.5 106.5 253.5s155.5 106.5 253.5 106.5s182.5 -35.5 253.5 -106.5s106.5 -155.5 106.5 -253.5v-270h-540v-90c0 -49.333 17.667 -91.666 53 -126.999s92.666 -53 171.999 -53
s136.666 18.333 171.999 55l143 -129c-82 -70.667 -187 -106 -315 -106s-227.5 35.5 -298.5 106.5zM487.002 846.999c-35.333 35.333 -77.668 53 -127.001 53s-91.666 -17.667 -126.999 -53s-53 -77.666 -53 -126.999v-90h360v90c0 49.333 -17.667 91.666 -53 126.999z
M270 1230l90 270h270l-180 -270h-180z" />
    <glyph glyph-name="ecircumflex" unicode="&#xea;" 
d="M106.5 106.5c-71 71 -106.498 155.499 -106.498 253.499v360c0 98 35.5 182.5 106.5 253.5s155.5 106.5 253.5 106.5s182.5 -35.5 253.5 -106.5s106.5 -155.5 106.5 -253.5v-270h-540v-90c0 -49.333 17.667 -91.666 53 -126.999s92.666 -53 171.999 -53
s136.666 18.333 171.999 55l143 -129c-82 -70.667 -187 -106 -315 -106s-227.5 35.5 -298.5 106.5zM487.002 846.999c-35.333 35.333 -77.668 53 -127.001 53s-91.666 -17.667 -126.999 -53s-53 -77.666 -53 -126.999v-90h360v90c0 49.333 -17.667 91.666 -53 126.999z
M450 1500l270 -270h-200l-160 180l-160 -180h-200l270 270h180z" />
    <glyph glyph-name="edieresis" unicode="&#xeb;" 
d="M106.5 106.5c-71 71 -106.498 155.499 -106.498 253.499v360c0 98 35.5 182.5 106.5 253.5s155.5 106.5 253.5 106.5s182.5 -35.5 253.5 -106.5s106.5 -155.5 106.5 -253.5v-270h-540v-90c0 -49.333 17.667 -91.666 53 -126.999s92.666 -53 171.999 -53
s136.666 18.333 171.999 55l143 -129c-82 -70.667 -187 -106 -315 -106s-227.5 35.5 -298.5 106.5zM487.002 846.999c-35.333 35.333 -77.668 53 -127.001 53s-91.666 -17.667 -126.999 -53s-53 -77.666 -53 -126.999v-90h360v90c0 49.333 -17.667 91.666 -53 126.999z
M660 1320c0 -32.667 -11.832 -60.835 -35.499 -84.502s-51.834 -35.5 -84.501 -35.5s-60.834 11.833 -84.501 35.5s-35.5 51.834 -35.5 84.501s11.833 60.834 35.5 84.501s51.834 35.5 84.501 35.5s61 -11.667 85 -35c23.333 -24 35 -52.333 35 -85zM300.001 1320
c0 -32.667 -11.832 -60.835 -35.499 -84.502s-51.834 -35.5 -84.501 -35.5s-60.834 11.833 -84.501 35.5s-35.5 51.834 -35.5 84.501s11.833 60.834 35.5 84.501s51.834 35.5 84.501 35.5s61 -11.667 85 -35c23.333 -24 35 -52.333 35 -85z" />
    <glyph glyph-name="igrave" unicode="&#xec;" 
d="M90 0v180h180v720h-180v180h360v-900h180v-180h-540zM270 1230l-180 270h270l90 -270h-180z" />
    <glyph glyph-name="iacute" unicode="&#xed;" 
d="M90 0v180h180v720h-180v180h360v-900h180v-180h-540zM270 1230l90 270h270l-180 -270h-180z" />
    <glyph glyph-name="icircumflex" unicode="&#xee;" 
d="M90 0v180h180v720h-180v180h360v-900h180v-180h-540zM450 1500l270 -270h-200l-160 180l-160 -180h-200l270 270h180z" />
    <glyph glyph-name="idieresis" unicode="&#xef;" 
d="M90 0v180h180v720h-180v180h360v-900h180v-180h-540zM660 1320c0 -32.667 -11.832 -60.835 -35.499 -84.502s-51.834 -35.5 -84.501 -35.5s-60.834 11.833 -84.501 35.5s-35.5 51.834 -35.5 84.501s11.833 60.834 35.5 84.501s51.834 35.5 84.501 35.5s61 -11.667 85 -35
c23.333 -24 35 -52.333 35 -85zM300.001 1320c0 -32.667 -11.832 -60.835 -35.499 -84.502s-51.834 -35.5 -84.501 -35.5s-60.834 11.833 -84.501 35.5s-35.5 51.834 -35.5 84.501s11.833 60.834 35.5 84.501s51.834 35.5 84.501 35.5s61 -11.667 85 -35
c23.333 -24 35 -52.333 35 -85z" />
    <glyph glyph-name="eth" unicode="&#xf0;" 
d="M487 847c35.333 -35.333 53.0029 -77.6631 53.0029 -126.996v180v70l-40 -35l-115 140l85 79c-30.667 37.333 -59.834 62.666 -87.501 75.999s-63.334 20.666 -107.001 21.999s-95.5 -14.334 -155.5 -47.001l-60 185c100 41.333 189.667 55.833 269 43.5
s142.166 -31.833 188.499 -58.5s79.833 -56.334 100.5 -89.001l52 44l115 -140l-85 -74c13.333 -42.667 20 -114.667 20 -216v-540c0 -98 -35.5 -182.5 -106.5 -253.5s-155.5 -106.5 -253.5 -106.5s-182.5 35.5 -253.5 106.5s-106.5 155.5 -106.5 253.5v180
c0 98 30 182.5 90 253.5s132.333 106.5 217 106.5s144.667 -17.667 180 -53zM180.003 360.003c0 -49.333 17.667 -91.666 53 -126.999s77.666 -53 126.999 -53s91.666 17.667 126.999 53s53 77.666 53 126.999v180c0 49.333 -17.667 91.666 -53 126.999
s-77.666 53 -126.999 53s-91.666 -17.667 -126.999 -53s-53 -77.666 -53 -126.999v-180z" />
    <glyph glyph-name="ntilde" unicode="&#xf1;" 
d="M630 973.5c60 -71 89.998 -155.499 89.998 -253.499v-720h-180v720c0 49.333 -17.667 91.666 -53 126.999s-77.666 53 -126.999 53s-91.666 -17.667 -126.999 -53s-53 -77.666 -53 -126.999v-720h-180v1080h180v-180c0 49.333 17.667 91.666 53 126.999s95.333 53 180 53
s157 -35.5 217 -106.5zM239.998 1500c65.333 0 113.5 -22.5 144.5 -67.5s62.833 -67.5 95.5 -67.5s60.834 13.167 84.501 39.5s35.5 58.166 35.5 95.499h120c0 -73.333 -23.667 -136.666 -71 -189.999s-103.666 -80 -168.999 -80s-113.5 22.5 -144.5 67.5
s-62.833 67.5 -95.5 67.5s-60.834 -13.167 -84.501 -39.5s-35.5 -58.166 -35.5 -95.499h-120c0 73.333 23.667 136.666 71 189.999s103.666 80 168.999 80z" />
    <glyph glyph-name="ograve" unicode="&#xf2;" 
d="M106.5 106.5c-71 71 -106.5 155.5 -106.5 253.5v360c0 98 35.5 182.5 106.5 253.5s155.5 106.5 253.5 106.5s182.5 -35.5 253.5 -106.5s106.5 -155.5 106.5 -253.5v-360c0 -98 -35.5 -182.5 -106.5 -253.5s-155.5 -106.5 -253.5 -106.5s-182.5 35.5 -253.5 106.5z
M540 720c0 49.333 -17.667 91.666 -53 126.999s-77.666 53 -126.999 53s-91.666 -17.667 -126.999 -53s-53 -77.666 -53 -126.999v-360c0 -49.333 17.667 -91.666 53 -126.999s77.666 -53 126.999 -53s91.666 17.667 126.999 53s53 77.666 53 126.999v360zM270 1230
l-180 270h270l90 -270h-180z" />
    <glyph glyph-name="oacute" unicode="&#xf3;" 
d="M106.5 106.5c-71 71 -106.5 155.5 -106.5 253.5v360c0 98 35.5 182.5 106.5 253.5s155.5 106.5 253.5 106.5s182.5 -35.5 253.5 -106.5s106.5 -155.5 106.5 -253.5v-360c0 -98 -35.5 -182.5 -106.5 -253.5s-155.5 -106.5 -253.5 -106.5s-182.5 35.5 -253.5 106.5z
M540 720c0 49.333 -17.667 91.666 -53 126.999s-77.666 53 -126.999 53s-91.666 -17.667 -126.999 -53s-53 -77.666 -53 -126.999v-360c0 -49.333 17.667 -91.666 53 -126.999s77.666 -53 126.999 -53s91.666 17.667 126.999 53s53 77.666 53 126.999v360zM270 1230l90 270
h270l-180 -270h-180z" />
    <glyph glyph-name="ocircumflex" unicode="&#xf4;" 
d="M106.5 106.5c-71 71 -106.5 155.5 -106.5 253.5v360c0 98 35.5 182.5 106.5 253.5s155.5 106.5 253.5 106.5s182.5 -35.5 253.5 -106.5s106.5 -155.5 106.5 -253.5v-360c0 -98 -35.5 -182.5 -106.5 -253.5s-155.5 -106.5 -253.5 -106.5s-182.5 35.5 -253.5 106.5z
M540 720c0 49.333 -17.667 91.666 -53 126.999s-77.666 53 -126.999 53s-91.666 -17.667 -126.999 -53s-53 -77.666 -53 -126.999v-360c0 -49.333 17.667 -91.666 53 -126.999s77.666 -53 126.999 -53s91.666 17.667 126.999 53s53 77.666 53 126.999v360zM450 1500
l270 -270h-200l-160 180l-160 -180h-200l270 270h180z" />
    <glyph glyph-name="otilde" unicode="&#xf5;" 
d="M106.5 106.5c-71 71 -106.5 155.5 -106.5 253.5v360c0 98 35.5 182.5 106.5 253.5s155.5 106.5 253.5 106.5s182.5 -35.5 253.5 -106.5s106.5 -155.5 106.5 -253.5v-360c0 -98 -35.5 -182.5 -106.5 -253.5s-155.5 -106.5 -253.5 -106.5s-182.5 35.5 -253.5 106.5z
M540 720c0 49.333 -17.667 91.666 -53 126.999s-77.666 53 -126.999 53s-91.666 -17.667 -126.999 -53s-53 -77.666 -53 -126.999v-360c0 -49.333 17.667 -91.666 53 -126.999s77.666 -53 126.999 -53s91.666 17.667 126.999 53s53 77.666 53 126.999v360zM240 1500
c65.333 0 113.5 -22.5 144.5 -67.5s62.833 -67.5 95.5 -67.5s60.834 13.167 84.501 39.5s35.5 58.166 35.5 95.499h120c0 -73.333 -23.667 -136.666 -71 -189.999s-103.666 -80 -168.999 -80s-113.5 22.5 -144.5 67.5s-62.833 67.5 -95.5 67.5
s-60.834 -13.167 -84.501 -39.5s-35.5 -58.166 -35.5 -95.499h-120c0 73.333 23.667 136.666 71 189.999s103.666 80 168.999 80z" />
    <glyph glyph-name="odieresis" unicode="&#xf6;" 
d="M106.5 106.5c-71 71 -106.5 155.5 -106.5 253.5v360c0 98 35.5 182.5 106.5 253.5s155.5 106.5 253.5 106.5s182.5 -35.5 253.5 -106.5s106.5 -155.5 106.5 -253.5v-360c0 -98 -35.5 -182.5 -106.5 -253.5s-155.5 -106.5 -253.5 -106.5s-182.5 35.5 -253.5 106.5z
M540 720c0 49.333 -17.667 91.666 -53 126.999s-77.666 53 -126.999 53s-91.666 -17.667 -126.999 -53s-53 -77.666 -53 -126.999v-360c0 -49.333 17.667 -91.666 53 -126.999s77.666 -53 126.999 -53s91.666 17.667 126.999 53s53 77.666 53 126.999v360zM660 1320
c0 -32.667 -11.832 -60.835 -35.499 -84.502s-51.834 -35.5 -84.501 -35.5s-60.834 11.833 -84.501 35.5s-35.5 51.834 -35.5 84.501s11.833 60.834 35.5 84.501s51.834 35.5 84.501 35.5s61 -11.667 85 -35c23.333 -24 35 -52.333 35 -85zM300.001 1320
c0 -32.667 -11.832 -60.835 -35.499 -84.502s-51.834 -35.5 -84.501 -35.5s-60.834 11.833 -84.501 35.5s-35.5 51.834 -35.5 84.501s11.833 60.834 35.5 84.501s51.834 35.5 84.501 35.5s61 -11.667 85 -35c23.333 -24 35 -52.333 35 -85z" />
    <glyph glyph-name="divide" unicode="&#xf7;" 
d="M0 630v180h720v-180h-720zM225 1080c0 37.333 13.168 69.165 39.501 95.498s58.166 39.5 95.499 39.5s69.166 -13.167 95.499 -39.5s39.5 -58.166 39.5 -95.499s-13.167 -69.166 -39.5 -95.499s-58.166 -39.5 -95.499 -39.5s-69 13.333 -95 40
c-26.667 26 -40 57.667 -40 95zM225.001 359.999c0 37.333 13.168 69.165 39.501 95.498s58.166 39.5 95.499 39.5s69.166 -13.167 95.499 -39.5s39.5 -58.166 39.5 -95.499s-13.167 -69.166 -39.5 -95.499s-58.166 -39.5 -95.499 -39.5s-69 13.333 -95 40
c-26.667 26 -40 57.667 -40 95z" />
    <glyph glyph-name="oslash" unicode="&#xf8;" 
d="M106.5 106.5c-71 71 -106.5 155.5 -106.5 253.5v360c0 98 35.5 182.5 106.5 253.5s155.5 106.5 253.5 106.5s182.5 -35.5 253.5 -106.5s106.5 -155.5 106.5 -253.5v-360c0 -98 -35.5 -182.5 -106.5 -253.5s-155.5 -106.5 -253.5 -106.5s-182.5 35.5 -253.5 106.5z
M180 540l359.998 180c0 49.333 -17.667 91.666 -53 126.999s-77.666 53 -126.999 53s-91.666 -17.667 -126.999 -53s-53 -77.666 -53 -126.999v-180zM539.998 540l-359.998 -180c0 -49.333 17.667 -91.666 53 -126.999s77.666 -53 126.999 -53s91.666 17.667 126.999 53
s53 77.666 53 126.999v180z" />
    <glyph glyph-name="ugrave" unicode="&#xf9;" 
d="M90 106.5c-60 71 -89.998 155.499 -89.998 253.499v720h180v-720c0 -49.333 17.667 -91.666 53 -126.999s77.666 -53 126.999 -53s91.666 17.667 126.999 53s53 77.666 53 126.999v720h180v-1080h-180v180c0 -49.333 -17.667 -91.666 -53 -126.999s-95.333 -53 -180 -53
s-157 35.5 -217 106.5zM270.002 1230l-180 270h270l90 -270h-180z" />
    <glyph glyph-name="uacute" unicode="&#xfa;" 
d="M90 106.5c-60 71 -89.998 155.499 -89.998 253.499v720h180v-720c0 -49.333 17.667 -91.666 53 -126.999s77.666 -53 126.999 -53s91.666 17.667 126.999 53s53 77.666 53 126.999v720h180v-1080h-180v180c0 -49.333 -17.667 -91.666 -53 -126.999s-95.333 -53 -180 -53
s-157 35.5 -217 106.5zM270.002 1230l90 270h270l-180 -270h-180z" />
    <glyph glyph-name="ucircumflex" unicode="&#xfb;" 
d="M90 106.5c-60 71 -89.998 155.499 -89.998 253.499v720h180v-720c0 -49.333 17.667 -91.666 53 -126.999s77.666 -53 126.999 -53s91.666 17.667 126.999 53s53 77.666 53 126.999v720h180v-1080h-180v180c0 -49.333 -17.667 -91.666 -53 -126.999s-95.333 -53 -180 -53
s-157 35.5 -217 106.5zM450.002 1500l270 -270h-200l-160 180l-160 -180h-200l270 270h180z" />
    <glyph glyph-name="udieresis" unicode="&#xfc;" 
d="M90 106.5c-60 71 -89.998 155.499 -89.998 253.499v720h180v-720c0 -49.333 17.667 -91.666 53 -126.999s77.666 -53 126.999 -53s91.666 17.667 126.999 53s53 77.666 53 126.999v720h180v-1080h-180v180c0 -49.333 -17.667 -91.666 -53 -126.999s-95.333 -53 -180 -53
s-157 35.5 -217 106.5zM660.002 1320c0 -32.667 -11.832 -60.835 -35.499 -84.502s-51.834 -35.5 -84.501 -35.5s-60.834 11.833 -84.501 35.5s-35.5 51.834 -35.5 84.501s11.833 60.834 35.5 84.501s51.834 35.5 84.501 35.5s61 -11.667 85 -35
c23.333 -24 35 -52.333 35 -85zM300.003 1320c0 -32.667 -11.832 -60.835 -35.499 -84.502s-51.834 -35.5 -84.501 -35.5s-60.834 11.833 -84.501 35.5s-35.5 51.834 -35.5 84.501s11.833 60.834 35.5 84.501s51.834 35.5 84.501 35.5s61 -11.667 85 -35
c23.333 -24 35 -52.333 35 -85z" />
    <glyph glyph-name="yacute" unicode="&#xfd;" 
d="M270 0l-270 1080h200l160 -860l160 860h200l-300 -1200c-40 -160 -120 -240 -240 -240c-90 0 -150 15 -180 45v165c30 -20 70 -30 120 -30c70 0 120 60 150 180zM270 1230l90 270h270l-180 -270h-180z" />
    <glyph glyph-name="thorn" unicode="&#xfe;" 
d="M540 360v360c0 49.333 -17.667 91.666 -53 126.999s-77.666 53 -126.999 53s-91.666 -17.667 -126.999 -53s-53 -77.666 -53 -126.999v-360c0 -49.333 17.667 -91.666 53 -126.999s77.666 -53 126.999 -53s91.666 17.667 126.999 53s53 77.666 53 126.999zM630 973.5
c60 -71 90 -155.498 90 -253.498v-360c0 -98 -30 -182.5 -90 -253.5s-132.333 -106.5 -217 -106.5s-144.667 17.667 -180 53s-53 77.666 -53 126.999v-540h-180v1800h180v-540c0 49.333 17.667 91.666 53 126.999s95.333 53 180 53s157 -35.5 217 -106.5z" />
    <glyph glyph-name="ydieresis" unicode="&#xff;" 
d="M270 0l-270 1080h200l160 -860l160 860h200l-300 -1200c-40 -160 -120 -240 -240 -240c-90 0 -150 15 -180 45v165c30 -20 70 -30 120 -30c70 0 120 60 150 180zM660 1320c0 -32.667 -11.832 -60.835 -35.499 -84.502s-51.834 -35.5 -84.501 -35.5
s-60.834 11.833 -84.501 35.5s-35.5 51.834 -35.5 84.501s11.833 60.834 35.5 84.501s51.834 35.5 84.501 35.5s61 -11.667 85 -35c23.333 -24 35 -52.333 35 -85zM300.001 1320c0 -32.667 -11.832 -60.835 -35.499 -84.502s-51.834 -35.5 -84.501 -35.5
s-60.834 11.833 -84.501 35.5s-35.5 51.834 -35.5 84.501s11.833 60.834 35.5 84.501s51.834 35.5 84.501 35.5s61 -11.667 85 -35c23.333 -24 35 -52.333 35 -85z" />
    <glyph glyph-name="dotlessi" unicode="&#x131;" 
d="M90 0v180h180v720h-180v180h360v-900h180v-180h-540z" />
    <glyph glyph-name="Lslash" unicode="&#x141;" 
 />
    <glyph glyph-name="lslash" unicode="&#x142;" 
 />
    <glyph glyph-name="OE" unicode="&#x152;" 
d="M0 1080c0 98 35.5 182.5 106.5 253.5s155.5 106.5 253.5 106.5h360v-180h-225v-450h180v-180h-180v-450h225v-180h-360c-98 0 -182.5 35.5 -253.5 106.5s-106.5 155.5 -106.5 253.5v720zM315 1260c-19.333 0 -46.666 -17.6689 -81.999 -53.002s-53 -77.666 -53 -126.999
v-720c0 -49.333 17.667 -91.666 53 -126.999s62.666 -53 81.999 -53v1080z" />
    <glyph glyph-name="oe" unicode="&#x153;" 
d="M697.5 997.5c45 -55 67.5029 -147.499 67.5029 -277.499v-270h-315v-90c0 -49.333 6.16699 -91.666 18.5 -126.999s40.166 -53 83.499 -53s82.666 18.333 117.999 55l105 -129c-58.667 -70.667 -126.834 -106.334 -204.501 -107.001s-130.167 11.666 -157.5 36.999
s-45 53.333 -53 84c-30 -80 -82.5 -120 -157.5 -120s-135 27.5 -180 82.5s-67.5 147.5 -67.5 277.5v360c0 130 22.5 222.5 67.5 277.5s105 82.5 180 82.5s127.5 -40 157.5 -120c30 80 82.5 120 157.5 120s135 -27.5 180 -82.5zM566.503 847.001
c-12.333 35.333 -28.668 53 -49.001 53s-36.666 -17.667 -48.999 -53s-18.5 -77.666 -18.5 -126.999v-90h135v90c0 49.333 -6.16699 91.666 -18.5 126.999zM270.001 720.001c0 49.333 -4.5 91.666 -13.5 126.999s-25.333 53 -49 53s-41.667 -17.667 -54 -53
s-18.5 -77.666 -18.5 -126.999v-360c0 -49.333 6.16699 -91.666 18.5 -126.999s30.333 -53 54 -53s40 17.667 49 53s13.5 77.666 13.5 126.999v360z" />
    <glyph glyph-name="Scaron" unicode="&#x160;" 
 />
    <glyph glyph-name="scaron" unicode="&#x161;" 
 />
    <glyph glyph-name="Ydieresis" unicode="&#x178;" 
d="M270 360l-270 1080h200l160 -860l160 860h200l-270 -1080v-360h-180v360zM660 1620c0 -32.667 -11.832 -60.835 -35.499 -84.502s-51.834 -35.5 -84.501 -35.5s-60.834 11.833 -84.501 35.5s-35.5 51.834 -35.5 84.501s11.833 60.834 35.5 84.501
s51.834 35.5 84.501 35.5s61 -11.667 85 -35c23.333 -24 35 -52.333 35 -85zM300.001 1620c0 -32.667 -11.832 -60.835 -35.499 -84.502s-51.834 -35.5 -84.501 -35.5s-60.834 11.833 -84.501 35.5s-35.5 51.834 -35.5 84.501s11.833 60.834 35.5 84.501
s51.834 35.5 84.501 35.5s61 -11.667 85 -35c23.333 -24 35 -52.333 35 -85z" />
    <glyph glyph-name="Zcaron" unicode="&#x17d;" 
 />
    <glyph glyph-name="zcaron" unicode="&#x17e;" 
 />
    <glyph glyph-name="florin" unicode="&#x192;" 
 />
    <glyph glyph-name="circumflex" unicode="&#x2c6;" 
d="M450 1800l270 -270h-200l-160 180l-160 -180h-200l270 270h180z" />
    <glyph glyph-name="caron" unicode="&#x2c7;" 
 />
    <glyph glyph-name="realgrave" unicode="&#x2cb;" 
d="M270 1530l-180 270h270l90 -270h-180z" />
    <glyph glyph-name="breve" unicode="&#x2d8;" 
 />
    <glyph glyph-name="dotaccent" unicode="&#x2d9;" 
 />
    <glyph glyph-name="ring" unicode="&#x2da;" 
d="M297 1635c17.333 -8.66699 38.334 -13 63.001 -13s45.834 4.33301 63.501 13s26.5 19.167 26.5 31.5s-8.83301 23 -26.5 32s-38.834 13.5 -63.501 13.5s-45.834 -4.5 -63.501 -13.5s-26.5 -19.667 -26.5 -32s9 -22.833 27 -31.5zM180.001 1665
c0 36.667 17.667 68.334 53 95.001s77.666 40 126.999 40s91.666 -13.333 126.999 -40s53 -58.334 53 -95.001s-17.667 -68.334 -53 -95.001s-77.666 -40 -126.999 -40s-91.666 13.333 -126.999 40s-53 58.334 -53 95.001z" />
    <glyph glyph-name="ogonek" unicode="&#x2db;" 
 />
    <glyph glyph-name="tilde" unicode="&#x2dc;" 
d="M240 1800c65.333 0 113.5 -22.5 144.5 -67.5s62.833 -67.5 95.5 -67.5s60.834 13.167 84.501 39.5s35.5 58.166 35.5 95.499h120c0 -73.333 -23.667 -136.666 -71 -189.999s-103.666 -80 -168.999 -80s-113.5 22.5 -144.5 67.5s-62.833 67.5 -95.5 67.5
s-60.834 -13.167 -84.501 -39.5s-35.5 -58.166 -35.5 -95.499h-120c0 73.333 23.667 136.666 71 189.999s103.666 80 168.999 80z" />
    <glyph glyph-name="hungarumlaut" unicode="&#x2dd;" 
 />
    <glyph glyph-name="Delta" unicode="&#x394;" 
 />
    <glyph glyph-name="Delta" unicode="&#x2206;" 
 />
    <glyph glyph-name="Omega" unicode="&#x3a9;" 
 />
    <glyph glyph-name="Omega" unicode="&#x2126;" 
 />
    <glyph glyph-name="pi" unicode="&#x3c0;" 
 />
    <glyph glyph-name="endash" unicode="&#x2013;" 
d="M0 630v180h720v-180h-720z" />
    <glyph glyph-name="emdash" unicode="&#x2014;" 
d="M0 630v180h720v-180h-720z" />
    <glyph glyph-name="quoteleft" unicode="&#x2018;" 
d="M387 1208v179.999h180v-180c0 -25.333 8.66699 -46.666 26 -63.999l127 -127l-127 -128l-127 128c-52.667 52 -79 115.667 -79 191z" />
    <glyph glyph-name="quoteright" unicode="&#x2019;" 
d="M256 1017l-127 -127.999l-127 128l127 127c17.333 17.333 26 38.666 26 63.999v180h180v-180c0 -75.333 -26.333 -139 -79 -191z" />
    <glyph glyph-name="quotesinglbase" unicode="&#x201a;" 
d="M387 138v179.999h180v-180c0 -25.333 8.66699 -46.666 26 -63.999l127 -127l-127 -128l-127 128c-52.667 52 -79 115.667 -79 191z" />
    <glyph glyph-name="quotedblleft" unicode="&#x201c;" 
d="M390 1208v179.999h180v-180c0 -25.333 8.66699 -46.666 26 -63.999l127 -127l-127 -128l-127 128c-52.667 52 -79 115.667 -79 191zM55 1208v179.999h180v-180c0 -25.333 8.66699 -46.666 26 -63.999l127 -127l-127 -128l-127 128c-52.667 52 -79 115.667 -79 191z" />
    <glyph glyph-name="quotedblright" unicode="&#x201d;" 
d="M586 1017l-127 -127.999l-127 128l127 127c17.333 17.333 26 38.666 26 63.999v180h180v-180c0 -75.333 -26.333 -139 -79 -191zM256 1017l-127 -127.999l-127 128l127 127c17.333 17.333 26 38.666 26 63.999v180h180v-180c0 -75.333 -26.333 -139 -79 -191z" />
    <glyph glyph-name="quotedblbase" unicode="&#x201e;" 
d="M390 138v179.999h180v-180c0 -25.333 8.66699 -46.666 26 -63.999l127 -127l-127 -128l-127 128c-52.667 52 -79 115.667 -79 191zM55 137.999v179.999h180v-180c0 -25.333 8.66699 -46.666 26 -63.999l127 -127l-127 -128l-127 128c-52.667 52 -79 115.667 -79 191z" />
    <glyph glyph-name="dagger" unicode="&#x2020;" 
 />
    <glyph glyph-name="daggerdbl" unicode="&#x2021;" 
 />
    <glyph glyph-name="bullet" unicode="&#x2022;" 
d="M90 720c0 74 26.5 137.5 79.5 190.5s116.5 79.5 190.5 79.5s137.5 -26.5 190.5 -79.5s79.5 -116.5 79.5 -190.5s-26.5 -137.5 -79.5 -190.5s-116.5 -79.5 -190.5 -79.5s-137.333 26.667 -190 80c-53.333 52.667 -80 116 -80 190z" />
    <glyph glyph-name="ellipsis" unicode="&#x2026;" 
d="M240.059 120.059c0 32.9053 11.7832 61.1416 35.3506 84.709s51.8037 35.3506 84.709 35.3506s61.1416 -11.7832 84.709 -35.3506s35.3506 -51.8037 35.3506 -84.709s-11.7832 -61.1416 -35.3506 -84.709s-51.8037 -35.3506 -84.709 -35.3506
s-61.1416 11.7832 -84.709 35.3506s-35.3506 51.8037 -35.3506 84.709zM0.0585938 120.059c0 32.9053 11.7832 61.1416 35.3506 84.709s51.8037 35.3506 84.709 35.3506s61.1416 -11.7832 84.709 -35.3506s35.3506 -51.8037 35.3506 -84.709
s-11.7832 -61.1416 -35.3506 -84.709s-51.8037 -35.3506 -84.709 -35.3506s-61.1416 11.7832 -84.709 35.3506s-35.3506 51.8037 -35.3506 84.709zM480.059 120.059c0 32.9053 11.7832 61.1416 35.3506 84.709s51.8037 35.3506 84.709 35.3506
s61.1416 -11.7832 84.709 -35.3506s35.3506 -51.8037 35.3506 -84.709s-11.7832 -61.1416 -35.3506 -84.709s-51.8037 -35.3506 -84.709 -35.3506s-61.1416 11.7832 -84.709 35.3506s-35.3506 51.8037 -35.3506 84.709z" />
    <glyph glyph-name="perthousand" unicode="&#x2030;" 
 />
    <glyph glyph-name="guilsinglleft" unicode="&#x2039;" 
d="M270 720l450 270v-200l-270 -160l270 -160v-200l-450 270v180z" />
    <glyph glyph-name="guilsinglright" unicode="&#x203a;" 
d="M450 540l-450 -270v200l270 160l-270 160v200l450 -270v-180z" />
    <glyph glyph-name="fraction" unicode="&#x2044;" 
 />
    <glyph glyph-name="trademark" unicode="&#x2122;" 
d="M164.912 1000v419.59h-89.9121v59.9414h239.766v-59.9414h-89.9121v-419.59h-59.9414zM391.68 1000v479.531h69.9316l63.2715 -239.766l63.2715 239.766h69.9316v-479.531h-59.9414v289.717l-73.2617 -234.771l-73.2617 234.771v-289.717h-59.9414z" />
    <glyph glyph-name="partialdiff" unicode="&#x2202;" 
 />
    <glyph glyph-name="product" unicode="&#x220f;" 
 />
    <glyph glyph-name="summation" unicode="&#x2211;" 
 />
    <glyph glyph-name="radical" unicode="&#x221a;" 
 />
    <glyph glyph-name="infinity" unicode="&#x221e;" 
 />
    <glyph glyph-name="integral" unicode="&#x222b;" 
 />
    <glyph glyph-name="approxequal" unicode="&#x2248;" 
 />
    <glyph glyph-name="approxequal" unicode="&#x22f2;" 
 />
    <glyph glyph-name="notequal" unicode="&#x2260;" 
 />
    <glyph glyph-name="lessequal" unicode="&#x2264;" 
 />
    <glyph glyph-name="greaterequal" unicode="&#x2265;" 
 />
    <glyph glyph-name="lozenge" unicode="&#x25ca;" 
 />
    <glyph glyph-name="apple" unicode="&#xf000;" 
 />
    <glyph glyph-name="fi" unicode="&#xf001;" 
 />
    <glyph glyph-name="fl" unicode="&#xf002;" 
 />
    <glyph glyph-name=".null" 
 />
    <glyph glyph-name="nonmarkingreturn" 
 />
  </font>
</defs>
</svg>
