<svg id="instagramm" xmlns="http://www.w3.org/2000/svg" width="25.625" height="25.6" viewBox="0 0 25.625 25.6">
  <metadata><?xpacket begin="﻿" id="W5M0MpCehiHzreSzNTczkc9d"?>
<x:xmpmeta xmlns:x="adobe:ns:meta/" x:xmptk="Adobe XMP Core 5.6-c138 79.159824, 2016/09/14-01:09:01        ">
   <rdf:RDF xmlns:rdf="http://www.w3.org/1999/02/22-rdf-syntax-ns#">
      <rdf:Description rdf:about=""/>
   </rdf:RDF>
</x:xmpmeta>
                                                                                                    
                                                                                                    
                                                                                                    
                                                                                                    
                                                                                                    
                                                                                                    
                                                                                                    
                                                                                                    
                                                                                                    
                                                                                                    
                                                                                                    
                                                                                                    
                                                                                                    
                                                                                                    
                                                                                                    
                                                                                                    
                                                                                                    
                                                                                                    
                                                                                                    
                                                                                                    
                           
<?xpacket end="w"?></metadata>
<defs>
    <style>
      .cls-1 {
        fill: #3f729b;
      }

      .cls-2 {
        fill: #fff;
        fill-rule: evenodd;
      }
    </style>
  </defs>
  <circle id="base" class="cls-1" cx="12.813" cy="12.8" r="12.813"/>
  <path id="icon" class="cls-2" d="M723.418,10337.8h-8.836a2.76,2.76,0,0,0-2.784,2.8v8.8a2.76,2.76,0,0,0,2.784,2.8h8.836a2.76,2.76,0,0,0,2.784-2.8v-8.8A2.76,2.76,0,0,0,723.418,10337.8Zm0.877,1.6h0.315v2.4H722.2l-0.008-2.4h2.1Zm-5.295,3.2a2.4,2.4,0,1,1-2.41,2.4A2.43,2.43,0,0,1,719,10342.6Zm5.624,6.6a1.375,1.375,0,0,1-1.381,1.4h-8.511a1.374,1.374,0,0,1-1.381-1.4v-5.8h2a4.875,4.875,0,0,0-.29,1.6,3.939,3.939,0,0,0,7.877,0,4.875,4.875,0,0,0-.29-1.6h1.976v5.8Z" transform="translate(-706.188 -10332.2)"/>
</svg>
