<?xml version="1.0" encoding="utf-8"?>
<!-- Generator: Adobe Illustrator 22.1.0, SVG Export Plug-In . SVG Version: 6.00 Build 0)  -->
<svg version="1.1" id="Слой_1" xmlns="http://www.w3.org/2000/svg" xmlns:xlink="http://www.w3.org/1999/xlink" x="0px" y="0px"
	 viewBox="0 0 20 14.9" style="enable-background:new 0 0 20 14.9;" xml:space="preserve">
<style type="text/css">
	.st0{fill:#80D445;}
</style>
<path class="st0" d="M19.6,1.1C18,0.4,16.4,0,14.6,0C13,0,11.5,0.3,10,1C8.5,0.3,7,0,5.3,0s-3.4,0.4-5,1.1C0.2,1.2,0,1.5,0,1.7v12.5
	c0,0.2,0.1,0.4,0.3,0.6c0.2,0.1,0.4,0.1,0.6,0c1.5-0.7,2.9-1,4.4-1s2.9,0.4,4.4,1l0,0h0.1l0,0h0.1l0,0H10l0,0h0.1l0,0
	c1.5-0.7,2.9-1,4.4-1s2.9,0.4,4.4,1c0.2,0.1,0.4,0.1,0.6,0s0.3-0.3,0.3-0.6V1.7C20,1.5,19.8,1.2,19.6,1.1z M9.3,13.2
	c-1.3-0.5-2.7-0.8-4-0.8s-2.7,0.3-4,0.8v-11c1.3-0.6,2.6-0.8,4-0.8s2.7,0.3,4,0.8V13.2z M18.7,13.2c-1.3-0.5-2.7-0.8-4-0.8
	s-2.7,0.3-4,0.8v-11c1.3-0.6,2.6-0.8,4-0.8s2.7,0.3,4,0.8V13.2z"/>
<path class="st0" d="M17,8.9c-0.8-0.2-1.6-0.3-2.4-0.3S13,8.7,12.2,8.9c-0.4,0.1-0.6,0.4-0.5,0.8c0.1,0.4,0.4,0.6,0.8,0.5
	c0.7-0.2,1.4-0.2,2.1-0.2s1.4,0.1,2.1,0.2c0,0,0.1,0,0.2,0c0.3,0,0.6-0.2,0.6-0.5C17.6,9.4,17.4,9,17,8.9z"/>
<path class="st0" d="M17,6.5c-0.8-0.2-1.6-0.3-2.4-0.3S13,6.3,12.2,6.5c-0.4,0.1-0.6,0.4-0.5,0.8s0.4,0.6,0.8,0.5
	c0.7-0.2,1.4-0.2,2.1-0.2s1.4,0.1,2.1,0.2c0,0,0.1,0,0.2,0c0.3,0,0.6-0.2,0.6-0.5C17.6,6.9,17.4,6.6,17,6.5z"/>
<path class="st0" d="M12.3,4c-0.4,0.1-0.6,0.4-0.5,0.8s0.4,0.6,0.8,0.5c0.7-0.2,1.4-0.2,2.1-0.2c0.7,0,1.4,0.1,2.1,0.2
	c0,0,0.1,0,0.2,0c0.3,0,0.6-0.2,0.6-0.5c0.1-0.4-0.1-0.7-0.5-0.8c-0.8-0.2-1.6-0.3-2.4-0.3S13.1,3.9,12.3,4z"/>
<path class="st0" d="M7.7,8.9C6.9,8.8,6.1,8.7,5.3,8.7S3.8,8.8,3,8.9C2.6,9,2.4,9.4,2.4,9.7c0.1,0.4,0.4,0.6,0.8,0.5
	C4,10.1,4.7,10,5.3,10s1.4,0.1,2.1,0.2c0,0,0.1,0,0.2,0c0.3,0,0.6-0.2,0.6-0.5C8.3,9.4,8.1,9,7.7,8.9z"/>
<path class="st0" d="M7.7,6.5C6.9,6.3,6.1,6.2,5.3,6.2S3.8,6.3,3,6.5C2.6,6.6,2.4,6.9,2.4,7.3c0.1,0.4,0.4,0.6,0.8,0.5
	C4,7.6,4.7,7.6,5.3,7.6s1.4,0.1,2.1,0.2c0,0,0.1,0,0.2,0c0.3,0,0.6-0.2,0.6-0.5C8.3,6.9,8.1,6.6,7.7,6.5z"/>
<path class="st0" d="M3,4C2.6,4.1,2.4,4.5,2.4,4.8c0.1,0.4,0.4,0.6,0.8,0.5C4,5.2,4.7,5.1,5.3,5.1s1.4,0.1,2.1,0.2c0,0,0.1,0,0.2,0
	c0.3,0,0.6-0.2,0.6-0.5C8.3,4.4,8.1,4.1,7.7,4C6.9,3.9,6.1,3.8,5.3,3.8S3.8,3.9,3,4z"/>
</svg>
