<svg id="Слой_1" data-name="Слой 1" xmlns="http://www.w3.org/2000/svg" viewBox="0 0 566.92 459.98"><defs><style>.cls-1{fill:#fff;}</style></defs><title>fkpramps_logo_white</title><path class="cls-1" d="M444.26,187.51c69.13-42,115-110.13,118-187.51H458.86c-4.69,77.32-77.23,139.3-167.75,143.34H291v88.32h.11c90.47,4,163,66,167.7,143.32H562.25C559.3,297.62,513.39,229.53,444.26,187.51Z"/><path class="cls-1" d="M1,231.67H63.83C26.29,271,3.07,320.73,1,375H104.45c4.68-77.34,77.28-139.34,167.86-143.34V143.34C212.88,145,158.13,162.43,113.6,190.88c22.81-57.36,84.77-99.28,158.71-102.55V0C124.65,4.11,5.82,105.58,1,231.67Z"/><polygon class="cls-1" points="0 459.21 12.34 459.21 12.34 443.32 33.38 443.32 33.38 433.08 12.34 433.08 12.34 425.52 35.6 425.52 35.6 414.71 0 414.71 0 459.21"/><rect class="cls-1" x="149.38" y="434.04" width="20.85" height="10.62"/><polygon class="cls-1" points="393.13 431.94 382.51 414.71 369.48 414.71 369.48 459.21 381.56 459.21 381.56 433.78 392.87 451.07 393.13 451.07 404.51 433.65 404.51 459.21 416.78 459.21 416.78 414.71 403.74 414.71 393.13 431.94"/><path class="cls-1" d="M550.33,431.5c-6.17-1.4-7.69-2.32-7.69-4.32,0-1.73,1.45-3,4.45-3a22.3,22.3,0,0,1,12.46,4.39l6.17-8.71C560.88,416,555,414,547.41,414c-10.69,0-17.23,6-17.23,14.24,0,9.28,7.31,11.95,16.78,14.11,6,1.4,7.5,2.42,7.5,4.26,0,2-1.78,3.18-5.08,3.18a22.92,22.92,0,0,1-14.44-5.34l-6.86,8.2v0c5.46,4.9,13,7.38,20.85,7.38,10.82,0,18-5.41,18-14.5C566.92,437,560.57,433.73,550.33,431.5Z"/><rect class="cls-1" x="208.52" y="414.81" width="12.33" height="44.4"/><rect class="cls-1" x="458.89" y="414.73" width="12.33" height="44.36"/><path class="cls-1" d="M248,430c0-4.51-1.33-7.95-3.94-10.55-3-3-7.69-4.77-14.49-4.77h-4v10.64h3.35c4.13,0,6.68,1.78,6.68,5.28S233.18,436,229,436h-3.41v8.63l9.64,14.5h14.25L238.85,443.7C244.38,441.35,248,436.83,248,430Z"/><path class="cls-1" d="M478,414.36s-.73,0-2.1.08V425H477c4.56,0,7.29,2.09,7.29,6,0,3.71-2.73,6.06-7.22,6.06h-1.19V447h1.45c11.32,0,19.59-5.66,19.59-16.4C497,420.28,489.53,414.36,478,414.36Z"/><polygon class="cls-1" points="303.15 414.39 284.2 459.21 297.03 459.21 300.2 451.27 313.37 451.27 309.55 441.67 303.98 441.67 309.39 428.04 321.79 459.21 333.98 459.21 315.04 414.39 303.15 414.39"/><polygon class="cls-1" points="101.42 414.71 86.1 432.76 86.1 414.71 73.77 414.71 73.77 459.21 86.1 459.21 86.13 448.54 116.05 414.71 101.42 414.71"/><polygon class="cls-1" points="93.46 446.84 101.81 459.21 116.62 459.21 101.75 437.51 93.46 446.84"/></svg>