<svg id="Слой_1" data-name="Слой 1" xmlns="http://www.w3.org/2000/svg" viewBox="0 0 566.92 459.98"><defs><style>.cls-1{fill:#80d445;}.cls-2{fill:#0094db;}</style></defs><title>Монтажная область 1</title><path class="cls-1" d="M458.81,375C454.13,297.67,381.52,235.67,291,231.67V143.34C438.61,147.45,557.44,248.92,562.25,375Z"/><path class="cls-1" d="M272.31,88.33c-90.58,4-163.18,66-167.86,143.34H1C5.82,105.58,124.65,4.11,272.31,0Z"/><path class="cls-2" d="M291,143.35c90.57-4,163.17-66,167.86-143.35H562.25C557.43,126.09,438.61,227.56,291,231.68Z"/><path class="cls-2" d="M272.31,231.67c-90.58,4-163.18,66-167.86,143.34H1C5.82,248.92,124.65,147.45,272.31,143.34Z"/><polygon class="cls-2" points="0 414.71 35.6 414.71 35.6 425.52 12.34 425.52 12.34 433.08 33.38 433.08 33.38 443.32 12.34 443.32 12.34 459.21 0 459.21 0 414.71"/><rect class="cls-2" x="149.38" y="434.04" width="20.85" height="10.62"/><polygon class="cls-1" points="369.48 414.71 382.51 414.71 393.13 431.94 403.74 414.71 416.78 414.71 416.78 459.21 404.51 459.21 404.51 433.65 393.13 451.07 392.87 451.07 381.56 433.78 381.56 459.21 369.48 459.21 369.48 414.71"/><path class="cls-1" d="M528.08,452.6l6.86-8.2a22.93,22.93,0,0,0,14.44,5.34c3.3,0,5.08-1.14,5.08-3.18,0-1.84-1.46-2.86-7.5-4.26-9.47-2.16-16.78-4.83-16.78-14.11,0-8.27,6.54-14.24,17.23-14.24,7.56,0,13.47,2,18.31,5.91l-6.17,8.71a22.34,22.34,0,0,0-12.46-4.39c-3,0-4.45,1.27-4.45,3,0,2,1.52,2.92,7.69,4.32,10.24,2.23,16.59,5.54,16.59,14,0,9.09-7.18,14.5-18,14.5-7.88,0-15.39-2.48-20.85-7.38"/><rect class="cls-1" x="208.52" y="414.81" width="12.33" height="44.4"/><rect class="cls-1" x="458.89" y="414.73" width="12.33" height="44.36"/><path class="cls-1" d="M238.85,443.7c5.53-2.35,9.15-6.87,9.15-13.67,0-4.51-1.33-7.95-3.94-10.55-3-3-7.69-4.77-14.49-4.77h-4v10.64l3.35,0c4.13,0,6.68,1.78,6.68,5.28s-2.42,5.4-6.62,5.4h-3.41v8.63l9.64,14.5h14.25Z"/><path class="cls-1" d="M478,414.36s-.73,0-2.1.08V425H477c4.56,0,7.29,2.09,7.29,6,0,3.71-2.73,6.06-7.22,6.06h-1.19v9.89h1.45c11.32,0,19.59-5.66,19.59-16.4C497,420.28,489.53,414.36,478,414.36Z"/><polygon class="cls-1" points="309.55 441.67 303.98 441.67 309.39 428.04 321.79 459.21 333.98 459.21 315.04 414.39 303.15 414.39 284.2 459.21 297.03 459.21 300.2 451.27 313.37 451.27 309.55 441.67"/><polygon class="cls-2" points="116.05 414.71 101.42 414.71 86.1 432.76 86.1 414.71 73.77 414.71 73.77 459.21 86.1 459.21 86.13 448.54 116.05 414.71"/><polygon class="cls-2" points="93.46 446.84 101.81 459.21 116.62 459.21 101.75 437.51 93.46 446.84"/></svg>