<svg id="linkedin" xmlns="http://www.w3.org/2000/svg" width="25.625" height="25.6"><defs><style>.cls-1{fill:#0e76a8}.cls-2{fill:#fff;fill-rule:evenodd}</style></defs><circle id="base" class="cls-1" cx="12.813" cy="12.8" r="12.813"/><path id="in" class="cls-2" d="M677.412 10349.8h2.4v-8h-2.4v8zm9.338-8.3a3.463 3.463 0 0 0-2.942 1.4v-1.1H681.4v8h2.406v-4.3a1.923 1.923 0 0 1 1.891-1.9c1.051 0 1.309.9 1.309 1.8v4.4h2.4v-4.5c0-3.2-1.492-3.8-2.656-3.8zm-8.15-2.9a1.2 1.2 0 1 1-1.2 1.2 1.177 1.177 0 0 1 1.2-1.2z" transform="translate(-670.188 -10332.2)"/></svg>